<svg xmlns="http://www.w3.org/2000/svg" width="1302.0469970703125" height="1165.931884765625" viewBox="-542.3447265625 -428.4739685058594 1302.0469970703125 1165.931884765625"><title>Neo4j Graph Visualization</title><desc>Created using Neo4j (http://www.neo4j.com/)</desc><g class="layer relationships"><g class="relationship" transform="translate(-6.371996920881777 352.3604715600894) rotate(281.8354352677529)"><path class="outline" fill="#FFE081" stroke="none" d="M 38.50762352901147,-10.835724717245364 L 38.766442574113995,-9.869798890956295 A 232.7371892661669 232.7371892661669 0 0 1 66.5520490543093,-15.526639601029046 L 66.4126161999905,-16.516871129075156 A 233.7371892661669 233.7371892661669 0 0 0 38.50762352901147,-10.835724717245364 Z M 127.5532762961317,-17.049941409865227 L 127.43113049329246,-16.057429242257825 A 232.7371892661669 232.7371892661669 0 0 1 155.31114664738584,-10.8859233166207 L 154.5853337186687,-7.975047916932997 L 162.22415806811,-9.677505716228639 L 156.2788972190087,-14.767090516204302 L 155.55308429029157,-11.8562151165166 A 233.7371892661669 233.7371892661669 0 0 0 127.5532762961317,-17.049941409865227"/><text text-anchor="middle" pointer-events="none" font-size="8px" fill="#000000" x="96.96979962843388" y="-15.291261858135528" font-family="sans-serif">re1_RELATION</text></g><g class="relationship" transform="translate(29.309778133935254 449.30272406370955) rotate(372.89298521700863)"><path class="outline" fill="#FFE081" stroke="none" d="M 38.50762352901147,-10.835724717245364 L 38.766442574113995,-9.869798890956295 A 162.84199844967938 162.84199844967938 0 0 1 48.910081648725566,-12.242803604011272 L 48.71355389930341,-13.22330186699142 A 163.84199844967938 163.84199844967938 0 0 0 38.50762352901147,-10.835724717245364 Z M 109.72676104053515,-13.864977407511105 L 109.55089826909844,-12.880562715614133 A 162.84199844967938 162.84199844967938 0 0 1 119.74220190655149,-10.72142047541681 L 119.02686159212202,-7.807953771548039 L 126.65951426798352,-9.537870859059522 L 120.69598899245743,-14.606042747241837 L 119.98064867802796,-11.692576043373066 A 163.84199844967938 163.84199844967938 0 0 0 109.72676104053515,-13.864977407511105"/><text text-anchor="middle" pointer-events="none" font-size="8px" fill="#000000" x="79.1952812751197" y="-12.90947278515901" font-family="sans-serif">re1_RELATION</text></g><g class="relationship" transform="translate(539.3470980096682 276.5025682955525) rotate(390.69421094742796)"><path class="outline" fill="#FFE081" stroke="none" d="M 38.50762352901147,-10.835724717245364 L 38.766442574113995,-9.869798890956295 A 240.67900600230521 240.67900600230521 0 0 1 68.56967362680888,-15.86781725763754 L 68.43468437287812,-16.85866432016698 A 241.67900600230521 241.67900600230521 0 0 0 38.50762352901147,-10.835724717245364 Z M 129.58249522064347,-17.381601927279547 L 129.464471969023,-16.388591095477125 A 240.67900600230521 240.67900600230521 0 0 1 159.3659267983025,-10.901168695121811 L 158.6391433365922,-7.990535465086735 L 166.27853491200273,-9.69044615613701 L 160.3349714139162,-14.782013001835248 L 159.60818795220592,-11.871379771800171 A 241.67900600230521 241.67900600230521 0 0 0 129.58249522064347,-17.381601927279547"/><text text-anchor="middle" pointer-events="none" font-size="8px" fill="#000000" x="98.99625961591052" y="-15.561918063450065" font-family="sans-serif">re1_RELATION</text></g><g class="relationship" transform="translate(551.1797881841852 187.2838065734019) rotate(304.719486683578)"><path class="outline" fill="#FFE081" stroke="none" d="M 38.50762352901147,-10.835724717245364 L 38.766442574113995,-9.869798890956295 A 228.67435658362706 228.67435658362706 0 0 1 65.52065293848787,-15.35028655986082 L 65.37883087881073,-16.340178727416912 A 229.67435658362706 229.67435658362706 0 0 0 38.50762352901147,-10.835724717245364 Z M 126.51548380516579,-16.878581421606498 L 126.39111744992472,-15.886345053756543 A 228.67435658362706 228.67435658362706 0 0 1 153.23769911632334,-10.877895179836099 L 152.51239726668308,-7.966892392666634 L 160.15092259465882,-9.67069132853703 L 154.20476824917705,-14.759232229395387 L 153.4794663995368,-11.848229442225922 A 229.67435658362706 229.67435658362706 0 0 0 126.51548380516579,-16.878581421606498"/><text text-anchor="middle" pointer-events="none" font-size="8px" fill="#000000" x="95.93356512428797" y="-15.152802321484131" font-family="sans-serif">re1_RELATION</text></g><g class="relationship" transform="translate(412.29224700896617 218.1604170103184) rotate(525.3767357711641)"><path class="outline" fill="#FFE081" stroke="none" d="M 38.50762352901147,-10.835724717245364 L 38.766442574113995,-9.869798890956295 A 244.95078626630976 244.95078626630976 0 0 1 69.65569926289083,-16.04951503620549 L 69.52298414731477,-17.040669261388246 A 245.95078626630976 245.95078626630976 0 0 0 38.50762352901147,-10.835724717245364 Z M 130.6743030707332,-17.55831014201732 L 130.55838584871145,-16.565051264564545 A 244.95078626630976 244.95078626630976 0 0 1 161.5478302064975,-10.90913322973777 L 160.82053971759174,-7.998626651022099 L 168.46022730498504,-9.697206518743592 L 162.5175508583719,-14.789808668025334 L 161.79026036946613,-11.879302089309663 A 245.95078626630976 245.95078626630976 0 0 0 130.6743030707332,-17.55831014201732"/><text text-anchor="middle" pointer-events="none" font-size="8px" fill="#000000" x="100.08672490812472" y="-15.707501138045899" transform="rotate(180 100.08672490812472 -18.7075011380459)" font-family="sans-serif">re1_RELATION</text></g><g class="relationship" transform="translate(460.37315065218934 142.08002068609377) rotate(253.99070338607282)"><path class="outline" fill="#FFE081" stroke="none" d="M 38.50762352901147,-10.835724717245364 L 38.766442574113995,-9.869798890956295 A 173.56412168606778 173.56412168606778 0 0 1 51.59846439458882,-12.791583767631693 L 51.41357780566341,-13.774343631095576 A 174.56412168606778 174.56412168606778 0 0 0 38.50762352901147,-10.835724717245364 Z M 112.45821459422754,-14.396720262245537 L 112.29340368403943,-13.410395080633009 A 173.56412168606778 173.56412168606778 0 0 1 125.1823296278573,-10.750846456996035 L 124.46511595929826,-7.837840354422255 L 132.09887947862262,-9.562848914120567 L 126.13861451926937,-14.634854593761073 L 125.42140085071033,-11.721848491187293 A 174.56412168606778 174.56412168606778 0 0 0 112.45821459422754,-14.396720262245537"/><text text-anchor="middle" pointer-events="none" font-size="8px" fill="#000000" x="81.91357558913212" y="-13.274806915882863" transform="rotate(180 81.91357558913212 -16.274806915882863)" font-family="sans-serif">re1_RELATION</text></g><g class="relationship" transform="translate(218.22791676842868 -216.67590211813166) rotate(275.4037816400591)"><path class="outline" fill="#FFE081" stroke="none" d="M 38.50762352901147,-10.835724717245364 L 38.766442574113995,-9.869798890956295 A 168.84576763534903 168.84576763534903 0 0 1 50.41434403212741,-12.552834654758414 L 50.22451043819219,-13.534650934218888 A 169.84576763534903 169.84576763534903 0 0 0 38.50762352901147,-10.835724717245364 Z M 111.25613707013831,-14.165384575114189 L 111.08663508873569,-13.179854728635377 A 168.84576763534903 168.84576763534903 0 0 1 122.78749870437919,-10.738117655660028 L 122.07109539123792,-7.8249121543401845 L 129.70437875964905,-9.552044175217024 L 123.74270312190089,-14.62239165741982 L 123.02629980875962,-11.709186156099976 A 169.84576763534903 169.84576763534903 0 0 0 111.25613707013831,-14.165384575114189"/><text text-anchor="middle" pointer-events="none" font-size="8px" fill="#000000" x="80.71692616892042" y="-13.11403634217183" font-family="sans-serif">re1_RELATION</text></g><g class="relationship" transform="translate(292.34169609066686 -146.1133631364595) rotate(356.80100484690945)"><path class="outline" fill="#FFE081" stroke="none" d="M 38.50762352901147,-10.835724717245364 L 38.766442574113995,-9.869798890956295 A 219.14432748172914 219.14432748172914 0 0 1 63.10356139176136,-14.931341904090033 L 62.95579755441764,-15.920364577426426 A 220.14432748172914 220.14432748172914 0 0 0 38.50762352901147,-10.835724717245364 Z M 124.08199045835231,-16.47169018070332 L 123.95209012145557,-15.480163124857597 A 219.14432748172914 219.14432748172914 0 0 1 148.3765469754364,-10.858423473371772 L 147.65248471796443,-7.947112111235361 L 155.29028386333337,-9.654163432959868 L 149.3419633187324,-14.74017195622032 L 148.61790106126043,-11.82886059408391 A 220.14432748172914 220.14432748172914 0 0 0 124.08199045835231,-16.47169018070332"/><text text-anchor="middle" pointer-events="none" font-size="8px" fill="#000000" x="93.50417423988249" y="-14.828027201646108" font-family="sans-serif">re1_RELATION</text></g><g class="relationship" transform="translate(141.49798480163753 -172.37661303815509) rotate(206.55246264801582)"><path class="outline" fill="#FFE081" stroke="none" d="M 34.39101615137755,-20.433012701892217 L 34.89101615137755,-19.566987298107776 A 119.37151999711708 119.37151999711708 0 0 1 62.40750097345721,-31.143416378384416 L 62.13801227818672,-32.106419931400396 A 120.37151999711708 120.37151999711708 0 0 0 34.39101615137755,-20.433012701892217 Z M 122.90640466962456,-33.178538495021996 L 122.67105308047485,-32.20662819592815 A 119.37151999711708 119.37151999711708 0 0 1 150.57876524458212,-21.608031638847894 L 149.17134438500025,-18.95866067123807 L 156.99520097893534,-18.765611461091808 L 152.45532639069128,-25.140526262327654 L 151.04790553110942,-22.49115529471783 A 120.37151999711708 120.37151999711708 0 0 0 122.90640466962456,-33.178538495021996"/><text text-anchor="middle" pointer-events="none" font-size="8px" fill="#000000" x="92.46224785462623" y="-33.04108694564046" transform="rotate(180 92.46224785462623 -36.04108694564046)" font-family="sans-serif">re1_RELATION</text></g><g class="relationship" transform="translate(-28.54314427702002 525.4759707169003) rotate(438.50899541059925)"><path class="outline" fill="#FFE081" stroke="none" d="M 38.50762352901147,-10.835724717245364 L 38.766442574113995,-9.869798890956295 A 174.5085552242477 174.5085552242477 0 0 1 51.83567039754421,-12.838887357656318 L 51.65174296911135,-13.821827183418861 A 175.5085552242477 175.5085552242477 0 0 0 38.50762352901147,-10.835724717245364 Z M 112.69884328684148,-14.442556002899977 L 112.53494094572419,-13.456079433195328 A 174.5085552242477 174.5085552242477 0 0 1 125.66183994972701,-10.75335400087267 L 124.9444666433588,-7.840387207496828 L 132.578324685332,-9.564977418242817 L 126.61833769155129,-14.637309725373793 L 125.90096438518307,-11.72434293199795 A 175.5085552242477 175.5085552242477 0 0 0 112.69884328684148,-14.442556002899977"/><text text-anchor="middle" pointer-events="none" font-size="8px" fill="#000000" x="82.1531797358956" y="-13.306987449828057" font-family="sans-serif">re1_RELATION</text></g><g class="relationship" transform="translate(151.01658169946143 -82.67437202618999) rotate(481.09573555409446)"><path class="outline" fill="#FFE081" stroke="none" d="M 38.50762352901147,-10.835724717245364 L 38.766442574113995,-9.869798890956295 A 107.35246770206898 107.35246770206898 0 0 1 39.460675286608804,-10.053331628011222 L 39.20832309529507,-11.02096708185691 A 108.35246770206898 108.35246770206898 0 0 0 38.50762352901147,-10.835724717245364 Z M 91.25319765656594,-11.674442716795056 L 91.02522045931073,-10.700776245393442 A 107.35246770206898 107.35246770206898 0 0 1 91.72384245919709,-10.534732197190639 L 91.02038764598605,-7.618372938496638 L 98.6459231983516,-9.379397509480544 L 92.66178221014515,-14.42321120878264 L 91.95832739693411,-11.506851950088638 A 108.35246770206898 108.35246770206898 0 0 0 91.25319765656594,-11.674442716795056"/><text text-anchor="middle" pointer-events="none" font-size="8px" fill="#000000" x="65.19721651013252" y="-11.019244884013887" transform="rotate(180 65.19721651013252 -14.019244884013887)" font-family="sans-serif">re1_RELAT…</text></g><g class="relationship" transform="translate(-357.3487996765208 -195.15359656359612) rotate(212.0595841027178)"><path class="outline" fill="#FFE081" stroke="none" d="M 38.50762352901147,-10.835724717245364 L 38.766442574113995,-9.869798890956295 A 126.36234479618531 126.36234479618531 0 0 1 39.84992993034278,-10.154976287626212 L 39.59968533325305,-11.123158936524334 A 127.36234479618531 127.36234479618531 0 0 0 38.50762352901147,-10.835724717245364 Z M 100.43043848005104,-11.839524227181158 L 100.20306346952329,-10.865716954366107 A 126.36234479618531 126.36234479618531 0 0 1 101.29296612140662,-10.606134196663021 L 100.58496543864796,-7.690875197326382 L 108.2132372336519,-9.4400091034489 L 102.23696703175152,-14.49314619577854 L 101.52896634899285,-11.5778871964419 A 127.36234479618531 127.36234479618531 0 0 0 100.43043848005104,-11.839524227181158"/><text text-anchor="middle" pointer-events="none" font-size="8px" fill="#000000" x="69.97755000926298" y="-11.666695478675024" transform="rotate(180 69.97755000926298 -14.666695478675024)" font-family="sans-serif">re1_RELATION</text></g><g class="relationship" transform="translate(-263.7086218786261 -203.87980309566763) rotate(295.1445098198095)"><path class="outline" fill="#FFE081" stroke="none" d="M 38.50762352901147,-10.835724717245364 L 38.766442574113995,-9.869798890956295 A 134.12216061045098 134.12216061045098 0 0 1 41.7627415742944,-10.63574115171437 L 41.526262603244845,-11.607377758811566 A 135.12216061045098 135.12216061045098 0 0 0 38.50762352901147,-10.835724717245364 Z M 102.40973503894837,-12.306595091653577 L 102.19563305302799,-11.329783779462247 A 134.12216061045098 134.12216061045098 0 0 1 105.20873240400847,-10.632856562015318 L 104.49903043941445,-7.718011262269312 L 112.12832176418149,-9.462692861253604 L 106.15500169013383,-14.519316961676662 L 105.44529972553981,-11.604471661930654 A 135.12216061045098 135.12216061045098 0 0 0 102.40973503894837,-12.306595091653577"/><text text-anchor="middle" pointer-events="none" font-size="8px" fill="#000000" x="71.93384343739237" y="-11.931023630282965" font-family="sans-serif">re1_RELATION</text></g><g class="relationship" transform="translate(-367.06442899700073 -105.97384098842078) rotate(502.78351413490435)"><path class="outline" fill="#FFE081" stroke="none" d="M 38.50762352901147,-10.835724717245364 L 38.766442574113995,-9.869798890956295 A 161.54952564584036 161.54952564584036 0 0 1 48.58663213649308,-12.175081269288142 L 48.38860057760026,-13.155276913882886 A 162.54952564584036 162.54952564584036 0 0 0 38.50762352901147,-10.835724717245364 Z M 109.39754047514587,-13.799354361054554 L 109.22024679297665,-12.81519637055564 A 161.54952564584036 161.54952564584036 0 0 1 119.08691639940945,-10.717750122757613 L 118.37180975257296,-7.804226056673675 L 126.00432366141138,-9.534755291153138 L 120.04039192852476,-14.602448877536196 L 119.32528528168827,-11.688924811452258 A 162.54952564584036 162.54952564584036 0 0 0 109.39754047514587,-13.799354361054554"/><text text-anchor="middle" pointer-events="none" font-size="8px" fill="#000000" x="78.86785890378778" y="-12.865435845340897" transform="rotate(180 78.86785890378778 -15.865435845340897)" font-family="sans-serif">re1_RELATION</text></g><g class="relationship" transform="translate(-223.82825677291112 -124.38057500002111) rotate(375.2876651166421)"><path class="outline" fill="#FFE081" stroke="none" d="M 38.50762352901147,-10.835724717245364 L 38.766442574113995,-9.869798890956295 A 199.36920356468963 199.36920356468963 0 0 1 58.099335537597774,-14.03457216669716 L 57.93748679993399,-15.021387745271312 A 200.36920356468963 200.36920356468963 0 0 0 38.50762352901147,-10.835724717245364 Z M 119.0360461897059,-15.601532938083068 L 118.8929650364344,-14.611821978469862 A 199.36920356468963 199.36920356468963 0 0 1 138.30145610017718,-10.814907256690802 L 137.58016415870068,-7.90290829804383 L 145.21633566059955,-9.617225886353442 L 139.26317868881253,-14.697572534886763 L 138.54188674733604,-11.785573576239791 A 200.36920356468963 200.36920356468963 0 0 0 119.0360461897059,-15.601532938083068"/><text text-anchor="middle" pointer-events="none" font-size="8px" fill="#000000" x="88.46926990992868" y="-14.154130322128083" font-family="sans-serif">re1_RELATION</text></g><g class="relationship" transform="translate(250.77523756456603 -54.52331208145773) rotate(434.80529773428657)"><path class="outline" fill="#FFE081" stroke="none" d="M 38.50762352901147,-10.835724717245364 L 38.766442574113995,-9.869798890956295 A 169.5619644827199 169.5619644827199 0 0 1 50.59397625109444,-12.589341455202344 L 50.40491066581448,-13.571305917116689 A 170.5619644827199 170.5619644827199 0 0 0 38.50762352901147,-10.835724717245364 Z M 111.43859055378626,-14.200757534037479 L 111.26981739070825,-13.21510261499904 A 169.5619644827199 169.5619644827199 0 0 1 123.15092366437207,-10.740071634837731 L 122.43439595462276,-7.826896727428052 L 130.06775306661956,-9.553702796657596 L 124.10629394403783,-14.624304844717303 L 123.38976623428852,-11.711129937307623 A 170.5619644827199 170.5619644827199 0 0 0 111.43859055378626,-14.200757534037479"/><text text-anchor="middle" pointer-events="none" font-size="8px" fill="#000000" x="80.89852111332961" y="-13.138439398291695" font-family="sans-serif">re1_RELATION</text></g><g class="relationship" transform="translate(-284.5219317013258 -51.348754875687035) rotate(432.2619596419404)"><path class="outline" fill="#FFE081" stroke="none" d="M 38.50762352901147,-10.835724717245364 L 38.766442574113995,-9.869798890956295 A 130.0473878329465 130.0473878329465 0 0 1 40.75708084721339,-10.386353909336506 L 40.51356882446841,-11.356251787867365 A 131.0473878329465 131.0473878329465 0 0 0 38.50762352901147,-10.835724717245364 Z M 101.37062787599228,-12.064384233505436 L 101.14975018400978,-11.089082718493557 A 130.0473878329465 130.0473878329465 0 0 1 103.15186911562792,-10.618987403692197 L 102.44305013087482,-7.703927259054767 L 110.07181261724077,-9.45091979670789 L 104.09696109529871,-14.50573426320877 L 103.38814211054562,-11.590674118571341 A 131.0473878329465 131.0473878329465 0 0 0 101.37062787599228,-12.064384233505436"/><text text-anchor="middle" pointer-events="none" font-size="8px" fill="#000000" x="70.90623736227376" y="-11.792219249873057" font-family="sans-serif">re1_RELATION</text></g><g class="relationship" transform="translate(-118.86194838112222 482.572368646223) rotate(530.4924360810852)"><path class="outline" fill="#FFE081" stroke="none" d="M 38.50762352901147,-10.835724717245364 L 38.766442574113995,-9.869798890956295 A 222.1085723436759 222.1085723436759 0 0 1 63.855033474246525,-15.062481662292157 L 63.70917085687392,-16.051786517659394 A 223.1085723436759 223.1085723436759 0 0 0 38.50762352901147,-10.835724717245364 Z M 124.8387876045487,-16.599028699710544 L 124.71065977814082,-15.607271037728566 A 222.1085723436759 222.1085723436759 0 0 1 149.8881937574789,-10.864578718252435 L 149.16373964909855,-7.953364840013526 L 156.80176849143308,-9.659388111738087 L 150.8541325686527,-14.746197222570979 L 150.12967846027234,-11.83498334433207 A 223.1085723436759 223.1085723436759 0 0 0 124.8387876045487,-16.599028699710544"/><text text-anchor="middle" pointer-events="none" font-size="8px" fill="#000000" x="94.25962320631706" y="-14.929045445869377" transform="rotate(180 94.25962320631706 -17.929045445869377)" font-family="sans-serif">re1_RELATION</text></g><g class="relationship" transform="translate(-107.04561750758899 383.2721094758159) rotate(221.20909045926413)"><path class="outline" fill="#FFE081" stroke="none" d="M 38.50762352901147,-10.835724717245364 L 38.766442574113995,-9.869798890956295 A 261.01200137877424 261.01200137877424 0 0 1 73.74339583479153,-16.722498039626515 L 73.61858194299964,-17.71467821097437 A 262.01200137877424 262.01200137877424 0 0 0 38.50762352901147,-10.835724717245364 Z M 134.7812956880476,-18.213306977684596 L 134.6726748004279,-17.219223730278912 A 261.01200137877424 261.01200137877424 0 0 1 169.75670478683327,-10.937696453030592 L 169.02759595367073,-8.027644853934051 L 176.66834332358565,-9.721451108834053 L 170.72884989771669,-14.81776525182598 L 169.99974106455414,-11.90771365272944 A 262.01200137877424 262.01200137877424 0 0 0 134.7812956880476,-18.213306977684596"/><text text-anchor="middle" pointer-events="none" font-size="8px" fill="#000000" x="104.18941488469835" y="-16.254877139129093" transform="rotate(180 104.18941488469835 -19.254877139129093)" font-family="sans-serif">re1_RELATION</text></g><g class="relationship" transform="translate(449.49234754252205 300.02399011252686) rotate(482.6956278706638)"><path class="outline" fill="#FFE081" stroke="none" d="M 38.50762352901147,-10.835724717245364 L 38.766442574113995,-9.869798890956295 A 170.3009764472449 170.3009764472449 0 0 1 50.77937087551768,-12.626909111485446 L 50.59109122808635,-13.609024570259578 A 171.3009764472449 171.3009764472449 0 0 0 38.50762352901147,-10.835724717245364 Z M 111.62685955706114,-14.237158431923774 L 111.45883202169149,-13.251376129710167 A 170.3009764472449 170.3009764472449 0 0 1 123.52595818959688,-10.742079576756517 L 122.80930264785988,-7.828936114017745 L 130.44273552627683,-9.555407223159982 L 124.48149891191287,-14.626270860408214 L 123.76484337017587,-11.713127397669442 A 171.3009764472449 171.3009764472449 0 0 0 111.62685955706114,-14.237158431923774"/><text text-anchor="middle" pointer-events="none" font-size="8px" fill="#000000" x="81.08591757236525" y="-13.163619927132203" transform="rotate(180 81.08591757236525 -16.163619927132203)" font-family="sans-serif">re1_RELATION</text></g><g class="relationship" transform="translate(34.86073429433108 155.59851678723754) rotate(461.8354352677529)"><path class="outline" fill="#FFE081" stroke="none" d="M 38.50762352901147,-10.835724717245364 L 38.766442574113995,-9.869798890956295 A 232.7371892661669 232.7371892661669 0 0 1 66.5520490543093,-15.526639601029046 L 66.4126161999905,-16.516871129075156 A 233.7371892661669 233.7371892661669 0 0 0 38.50762352901147,-10.835724717245364 Z M 127.5532762961317,-17.049941409865227 L 127.43113049329246,-16.057429242257825 A 232.7371892661669 232.7371892661669 0 0 1 155.31114664738584,-10.8859233166207 L 154.5853337186687,-7.975047916932997 L 162.22415806811,-9.677505716228639 L 156.2788972190087,-14.767090516204302 L 155.55308429029157,-11.8562151165166 A 233.7371892661669 233.7371892661669 0 0 0 127.5532762961317,-17.049941409865227"/><text text-anchor="middle" pointer-events="none" font-size="8px" fill="#000000" x="96.96979962843388" y="-15.291261858135528" transform="rotate(180 96.96979962843388 -18.291261858135528)" font-family="sans-serif">re3_RELATION</text></g><g class="relationship" transform="translate(190.64287048165832 486.2321471417574) rotate(192.89298521700863)"><path class="outline" fill="#FFE081" stroke="none" d="M 38.50762352901147,-10.835724717245364 L 38.766442574113995,-9.869798890956295 A 162.84199844967938 162.84199844967938 0 0 1 48.910081648725566,-12.242803604011272 L 48.71355389930341,-13.22330186699142 A 163.84199844967938 163.84199844967938 0 0 0 38.50762352901147,-10.835724717245364 Z M 109.72676104053515,-13.864977407511105 L 109.55089826909844,-12.880562715614133 A 162.84199844967938 162.84199844967938 0 0 1 119.74220190655149,-10.72142047541681 L 119.02686159212202,-7.807953771548039 L 126.65951426798352,-9.537870859059522 L 120.69598899245743,-14.606042747241837 L 119.98064867802796,-11.692576043373066 A 163.84199844967938 163.84199844967938 0 0 0 109.72676104053515,-13.864977407511105"/><text text-anchor="middle" pointer-events="none" font-size="8px" fill="#000000" x="79.1952812751197" y="-12.90947278515901" transform="rotate(180 79.1952812751197 -15.90947278515901)" font-family="sans-serif">re3_RELATION</text></g><g class="relationship" transform="translate(715.7021802576907 381.19045442335755) rotate(210.69421094742796)"><path class="outline" fill="#FFE081" stroke="none" d="M 38.50762352901147,-10.835724717245364 L 38.766442574113995,-9.869798890956295 A 240.67900600230521 240.67900600230521 0 0 1 68.56967362680888,-15.86781725763754 L 68.43468437287812,-16.85866432016698 A 241.67900600230521 241.67900600230521 0 0 0 38.50762352901147,-10.835724717245364 Z M 129.58249522064347,-17.381601927279547 L 129.464471969023,-16.388591095477125 A 240.67900600230521 240.67900600230521 0 0 1 159.3659267983025,-10.901168695121811 L 158.6391433365922,-7.990535465086735 L 166.27853491200273,-9.69044615613701 L 160.3349714139162,-14.782013001835248 L 159.60818795220592,-11.871379771800171 A 241.67900600230521 241.67900600230521 0 0 0 129.58249522064347,-17.381601927279547"/><text text-anchor="middle" pointer-events="none" font-size="8px" fill="#000000" x="98.99625961591052" y="-15.561918063450065" transform="rotate(180 98.99625961591052 -18.561918063450065)" font-family="sans-serif">re3_RELATION</text></g><g class="relationship" transform="translate(664.5017133352941 23.745030728191203) rotate(484.719486683578)"><path class="outline" fill="#FFE081" stroke="none" d="M 38.50762352901147,-10.835724717245364 L 38.766442574113995,-9.869798890956295 A 228.67435658362706 228.67435658362706 0 0 1 65.52065293848787,-15.35028655986082 L 65.37883087881073,-16.340178727416912 A 229.67435658362706 229.67435658362706 0 0 0 38.50762352901147,-10.835724717245364 Z M 126.51548380516579,-16.878581421606498 L 126.39111744992472,-15.886345053756543 A 228.67435658362706 228.67435658362706 0 0 1 153.23769911632334,-10.877895179836099 L 152.51239726668308,-7.966892392666634 L 160.15092259465882,-9.67069132853703 L 154.20476824917705,-14.759232229395387 L 153.4794663995368,-11.848229442225922 A 229.67435658362706 229.67435658362706 0 0 0 126.51548380516579,-16.878581421606498"/><text text-anchor="middle" pointer-events="none" font-size="8px" fill="#000000" x="95.93356512428797" y="-15.152802321484131" transform="rotate(180 95.93356512428797 -18.15280232148413)" font-family="sans-serif">re3_RELATION</text></g><g class="relationship" transform="translate(211.73931831436516 270.487508368565) rotate(345.37673577116414)"><path class="outline" fill="#FFE081" stroke="none" d="M 38.50762352901147,-10.835724717245364 L 38.766442574113995,-9.869798890956295 A 244.95078626630976 244.95078626630976 0 0 1 69.65569926289083,-16.04951503620549 L 69.52298414731477,-17.040669261388246 A 245.95078626630976 245.95078626630976 0 0 0 38.50762352901147,-10.835724717245364 Z M 130.6743030707332,-17.55831014201732 L 130.55838584871145,-16.565051264564545 A 244.95078626630976 244.95078626630976 0 0 1 161.5478302064975,-10.90913322973777 L 160.82053971759174,-7.998626651022099 L 168.46022730498504,-9.697206518743592 L 162.5175508583719,-14.789808668025334 L 161.79026036946613,-11.879302089309663 A 245.95078626630976 245.95078626630976 0 0 0 130.6743030707332,-17.55831014201732"/><text text-anchor="middle" pointer-events="none" font-size="8px" fill="#000000" x="100.08672490812472" y="-15.707501138045899" font-family="sans-serif">re3_RELATION</text></g><g class="relationship" transform="translate(413.22932658155275 -22.229407488921623) rotate(433.9907033860728)"><path class="outline" fill="#FFE081" stroke="none" d="M 38.50762352901147,-10.835724717245364 L 38.766442574113995,-9.869798890956295 A 173.56412168606778 173.56412168606778 0 0 1 51.59846439458882,-12.791583767631693 L 51.41357780566341,-13.774343631095576 A 174.56412168606778 174.56412168606778 0 0 0 38.50762352901147,-10.835724717245364 Z M 112.45821459422754,-14.396720262245537 L 112.29340368403943,-13.410395080633009 A 173.56412168606778 173.56412168606778 0 0 1 125.1823296278573,-10.750846456996035 L 124.46511595929826,-7.837840354422255 L 132.09887947862262,-9.562848914120567 L 126.13861451926937,-14.634854593761073 L 125.42140085071033,-11.721848491187293 A 174.56412168606778 174.56412168606778 0 0 0 112.45821459422754,-14.396720262245537"/><text text-anchor="middle" pointer-events="none" font-size="8px" fill="#000000" x="81.91357558913212" y="-13.274806915882863" font-family="sans-serif">re3_RELATION</text></g><g class="relationship" transform="translate(234.1006768847102 -384.4739555466574) rotate(455.4037816400591)"><path class="outline" fill="#FFE081" stroke="none" d="M 38.50762352901147,-10.835724717245364 L 38.766442574113995,-9.869798890956295 A 168.84576763534903 168.84576763534903 0 0 1 50.41434403212741,-12.552834654758414 L 50.22451043819219,-13.534650934218888 A 169.84576763534903 169.84576763534903 0 0 0 38.50762352901147,-10.835724717245364 Z M 111.25613707013831,-14.165384575114189 L 111.08663508873569,-13.179854728635377 A 168.84576763534903 168.84576763534903 0 0 1 122.78749870437919,-10.738117655660028 L 122.07109539123792,-7.8249121543401845 L 129.70437875964905,-9.552044175217024 L 123.74270312190089,-14.62239165741982 L 123.02629980875962,-11.709186156099976 A 169.84576763534903 169.84576763534903 0 0 0 111.25613707013831,-14.165384575114189"/><text text-anchor="middle" pointer-events="none" font-size="8px" fill="#000000" x="80.71692616892042" y="-13.11403634217183" transform="rotate(180 80.71692616892042 -16.11403634217183)" font-family="sans-serif">re3_RELATION</text></g><g class="relationship" transform="translate(486.1469949969877 -156.9453519819262) rotate(536.8010048469094)"><path class="outline" fill="#FFE081" stroke="none" d="M 38.50762352901147,-10.835724717245364 L 38.766442574113995,-9.869798890956295 A 219.14432748172914 219.14432748172914 0 0 1 63.10356139176136,-14.931341904090033 L 62.95579755441764,-15.920364577426426 A 220.14432748172914 220.14432748172914 0 0 0 38.50762352901147,-10.835724717245364 Z M 124.08199045835231,-16.47169018070332 L 123.95209012145557,-15.480163124857597 A 219.14432748172914 219.14432748172914 0 0 1 148.3765469754364,-10.858423473371772 L 147.65248471796443,-7.947112111235361 L 155.29028386333337,-9.654163432959868 L 149.3419633187324,-14.74017195622032 L 148.61790106126043,-11.82886059408391 A 220.14432748172914 220.14432748172914 0 0 0 124.08199045835231,-16.47169018070332"/><text text-anchor="middle" pointer-events="none" font-size="8px" fill="#000000" x="93.50417423988249" y="-14.828027201646108" transform="rotate(180 93.50417423988249 -17.82802720164611)" font-family="sans-serif">re3_RELATION</text></g><g class="relationship" transform="translate(-30.537277059725 -258.3470015484112) rotate(386.5524626480158)"><path class="outline" fill="#FFE081" stroke="none" d="M 40 0.5 L 62.06632360686653 0.5 L 62.06632360686653 -0.5 L 40 -0.5 Z M 123.25382360686653 0.5 L 145.32014721373307 0.5 L 145.32014721373307 3.5 L 152.32014721373307 0 L 145.32014721373307 -3.5 L 145.32014721373307 -0.5 L 123.25382360686653 -0.5 Z"/><text text-anchor="middle" pointer-events="none" font-size="8px" fill="#000000" x="92.66007360686653" y="3" font-family="sans-serif">re3_RELATION</text></g><g class="relationship" transform="translate(-30.537277059725 -258.3470015484112) rotate(386.5524626480158)"><path class="outline" fill="#FFE081" stroke="none" d="M 34.39101615137755,-20.433012701892217 L 34.89101615137755,-19.566987298107776 A 119.37151999711708 119.37151999711708 0 0 1 62.40750097345721,-31.143416378384416 L 62.13801227818672,-32.106419931400396 A 120.37151999711708 120.37151999711708 0 0 0 34.39101615137755,-20.433012701892217 Z M 122.90640466962456,-33.178538495021996 L 122.67105308047485,-32.20662819592815 A 119.37151999711708 119.37151999711708 0 0 1 150.57876524458212,-21.608031638847894 L 149.17134438500025,-18.95866067123807 L 156.99520097893534,-18.765611461091808 L 152.45532639069128,-25.140526262327654 L 151.04790553110942,-22.49115529471783 A 120.37151999711708 120.37151999711708 0 0 0 122.90640466962456,-33.178538495021996"/><text text-anchor="middle" pointer-events="none" font-size="8px" fill="#000000" x="92.46224785462623" y="-33.04108694564046" font-family="sans-serif">re3_RELATION</text></g><g class="relationship" transform="translate(5.6057120941277105 693.4579514589662) rotate(258.50899541059925)"><path class="outline" fill="#FFE081" stroke="none" d="M 38.50762352901147,-10.835724717245364 L 38.766442574113995,-9.869798890956295 A 174.5085552242477 174.5085552242477 0 0 1 51.83567039754421,-12.838887357656318 L 51.65174296911135,-13.821827183418861 A 175.5085552242477 175.5085552242477 0 0 0 38.50762352901147,-10.835724717245364 Z M 112.69884328684148,-14.442556002899977 L 112.53494094572419,-13.456079433195328 A 174.5085552242477 174.5085552242477 0 0 1 125.66183994972701,-10.75335400087267 L 124.9444666433588,-7.840387207496828 L 132.578324685332,-9.564977418242817 L 126.61833769155129,-14.637309725373793 L 125.90096438518307,-11.72434293199795 A 175.5085552242477 175.5085552242477 0 0 0 112.69884328684148,-14.442556002899977"/><text text-anchor="middle" pointer-events="none" font-size="8px" fill="#000000" x="82.1531797358956" y="-13.306987449828057" transform="rotate(180 82.1531797358956 -16.306987449828057)" font-family="sans-serif">re3_RELATION</text></g><g class="relationship" transform="translate(79.98614966609269 35.09393792977971) rotate(301.09573555409446)"><path class="outline" fill="#FFE081" stroke="none" d="M 38.50762352901147,-10.835724717245364 L 38.766442574113995,-9.869798890956295 A 107.35246770206898 107.35246770206898 0 0 1 39.460675286608804,-10.053331628011222 L 39.20832309529507,-11.02096708185691 A 108.35246770206898 108.35246770206898 0 0 0 38.50762352901147,-10.835724717245364 Z M 91.25319765656594,-11.674442716795056 L 91.02522045931073,-10.700776245393442 A 107.35246770206898 107.35246770206898 0 0 1 91.72384245919709,-10.534732197190639 L 91.02038764598605,-7.618372938496638 L 98.6459231983516,-9.379397509480544 L 92.66178221014515,-14.42321120878264 L 91.95832739693411,-11.506851950088638 A 108.35246770206898 108.35246770206898 0 0 0 91.25319765656594,-11.674442716795056"/><text text-anchor="middle" pointer-events="none" font-size="8px" fill="#000000" x="65.19721651013252" y="-11.019244884013887" font-family="sans-serif">re3_RELAT…</text></g><g class="relationship" transform="translate(-482.0014380893092 -273.22557431010154) rotate(392.0595841027178)"><path class="outline" fill="#FFE081" stroke="none" d="M 38.50762352901147,-10.835724717245364 L 38.766442574113995,-9.869798890956295 A 126.36234479618531 126.36234479618531 0 0 1 39.84992993034278,-10.154976287626212 L 39.59968533325305,-11.123158936524334 A 127.36234479618531 127.36234479618531 0 0 0 38.50762352901147,-10.835724717245364 Z M 100.43043848005104,-11.839524227181158 L 100.20306346952329,-10.865716954366107 A 126.36234479618531 126.36234479618531 0 0 1 101.29296612140662,-10.606134196663021 L 100.58496543864796,-7.690875197326382 L 108.2132372336519,-9.4400091034489 L 102.23696703175152,-14.49314619577854 L 101.52896634899285,-11.5778871964419 A 127.36234479618531 127.36234479618531 0 0 0 100.43043848005104,-11.839524227181158"/><text text-anchor="middle" pointer-events="none" font-size="8px" fill="#000000" x="69.97755000926298" y="-11.666695478675024" font-family="sans-serif">re3_RELATION</text></g><g class="relationship" transform="translate(-199.55130805730903 -340.56448663057563) rotate(475.1445098198095)"><path class="outline" fill="#FFE081" stroke="none" d="M 38.50762352901147,-10.835724717245364 L 38.766442574113995,-9.869798890956295 A 134.12216061045098 134.12216061045098 0 0 1 41.7627415742944,-10.63574115171437 L 41.526262603244845,-11.607377758811566 A 135.12216061045098 135.12216061045098 0 0 0 38.50762352901147,-10.835724717245364 Z M 102.40973503894837,-12.306595091653577 L 102.19563305302799,-11.329783779462247 A 134.12216061045098 134.12216061045098 0 0 1 105.20873240400847,-10.632856562015318 L 104.49903043941445,-7.718011262269312 L 112.12832176418149,-9.462692861253604 L 106.15500169013383,-14.519316961676662 L 105.44529972553981,-11.604471661930654 A 135.12216061045098 135.12216061045098 0 0 0 102.40973503894837,-12.306595091653577"/><text text-anchor="middle" pointer-events="none" font-size="8px" fill="#000000" x="71.93384343739237" y="-11.931023630282965" transform="rotate(180 71.93384343739237 -14.931023630282965)" font-family="sans-serif">re3_RELATION</text></g><g class="relationship" transform="translate(-498.3447469548209 -6.2671063899733355) rotate(322.78351413490435)"><path class="outline" fill="#FFE081" stroke="none" d="M 38.50762352901147,-10.835724717245364 L 38.766442574113995,-9.869798890956295 A 161.54952564584036 161.54952564584036 0 0 1 48.58663213649308,-12.175081269288142 L 48.38860057760026,-13.155276913882886 A 162.54952564584036 162.54952564584036 0 0 0 38.50762352901147,-10.835724717245364 Z M 109.39754047514587,-13.799354361054554 L 109.22024679297665,-12.81519637055564 A 161.54952564584036 161.54952564584036 0 0 1 119.08691639940945,-10.717750122757613 L 118.37180975257296,-7.804226056673675 L 126.00432366141138,-9.534755291153138 L 120.04039192852476,-14.602448877536196 L 119.32528528168827,-11.688924811452258 A 162.54952564584036 162.54952564584036 0 0 0 109.39754047514587,-13.799354361054554"/><text text-anchor="middle" pointer-events="none" font-size="8px" fill="#000000" x="78.86785890378778" y="-12.865435845340897" font-family="sans-serif">re3_RELATION</text></g><g class="relationship" transform="translate(-46.29777600458846 -75.85480872027892) rotate(195.28766511664207)"><path class="outline" fill="#FFE081" stroke="none" d="M 38.50762352901147,-10.835724717245364 L 38.766442574113995,-9.869798890956295 A 199.36920356468963 199.36920356468963 0 0 1 58.099335537597774,-14.03457216669716 L 57.93748679993399,-15.021387745271312 A 200.36920356468963 200.36920356468963 0 0 0 38.50762352901147,-10.835724717245364 Z M 119.0360461897059,-15.601532938083068 L 118.8929650364344,-14.611821978469862 A 199.36920356468963 199.36920356468963 0 0 1 138.30145610017718,-10.814907256690802 L 137.58016415870068,-7.90290829804383 L 145.21633566059955,-9.617225886353442 L 139.26317868881253,-14.697572534886763 L 138.54188674733604,-11.785573576239791 A 200.36920356468963 200.36920356468963 0 0 0 119.0360461897059,-15.601532938083068"/><text text-anchor="middle" pointer-events="none" font-size="8px" fill="#000000" x="88.46926990992868" y="-14.154130322128083" transform="rotate(180 88.46926990992868 -17.154130322128083)" font-family="sans-serif">re3_RELATION</text></g><g class="relationship" transform="translate(295.04656232109346 108.48180033803024) rotate(254.80529773428657)"><path class="outline" fill="#FFE081" stroke="none" d="M 38.50762352901147,-10.835724717245364 L 38.766442574113995,-9.869798890956295 A 169.5619644827199 169.5619644827199 0 0 1 50.59397625109444,-12.589341455202344 L 50.40491066581448,-13.571305917116689 A 170.5619644827199 170.5619644827199 0 0 0 38.50762352901147,-10.835724717245364 Z M 111.43859055378626,-14.200757534037479 L 111.26981739070825,-13.21510261499904 A 169.5619644827199 169.5619644827199 0 0 1 123.15092366437207,-10.740071634837731 L 122.43439595462276,-7.826896727428052 L 130.06775306661956,-9.553702796657596 L 124.10629394403783,-14.624304844717303 L 123.38976623428852,-11.711129937307623 A 170.5619644827199 170.5619644827199 0 0 0 111.43859055378626,-14.200757534037479"/><text text-anchor="middle" pointer-events="none" font-size="8px" fill="#000000" x="80.89852111332961" y="-13.138439398291695" transform="rotate(180 80.89852111332961 -16.138439398291695)" font-family="sans-serif">re3_RELATION</text></g><g class="relationship" transform="translate(-239.1452720255226 90.50986574616539) rotate(252.2619596419404)"><path class="outline" fill="#FFE081" stroke="none" d="M 38.50762352901147,-10.835724717245364 L 38.766442574113995,-9.869798890956295 A 130.0473878329465 130.0473878329465 0 0 1 40.75708084721339,-10.386353909336506 L 40.51356882446841,-11.356251787867365 A 131.0473878329465 131.0473878329465 0 0 0 38.50762352901147,-10.835724717245364 Z M 101.37062787599228,-12.064384233505436 L 101.14975018400978,-11.089082718493557 A 130.0473878329465 130.0473878329465 0 0 1 103.15186911562792,-10.618987403692197 L 102.44305013087482,-7.703927259054767 L 110.07181261724077,-9.45091979670789 L 104.09696109529871,-14.50573426320877 L 103.38814211054562,-11.590674118571341 A 131.0473878329465 131.0473878329465 0 0 0 101.37062787599228,-12.064384233505436"/><text text-anchor="middle" pointer-events="none" font-size="8px" fill="#000000" x="70.90623736227376" y="-11.792219249873057" transform="rotate(180 70.90623736227376 -14.792219249873057)" font-family="sans-serif">re3_RELATION</text></g><g class="relationship" transform="translate(-311.792855391343 514.8841136514947) rotate(350.4924360810852)"><path class="outline" fill="#FFE081" stroke="none" d="M 38.50762352901147,-10.835724717245364 L 38.766442574113995,-9.869798890956295 A 222.1085723436759 222.1085723436759 0 0 1 63.855033474246525,-15.062481662292157 L 63.70917085687392,-16.051786517659394 A 223.1085723436759 223.1085723436759 0 0 0 38.50762352901147,-10.835724717245364 Z M 124.8387876045487,-16.599028699710544 L 124.71065977814082,-15.607271037728566 A 222.1085723436759 222.1085723436759 0 0 1 149.8881937574789,-10.864578718252435 L 149.16373964909855,-7.953364840013526 L 156.80176849143308,-9.659388111738087 L 150.8541325686527,-14.746197222570979 L 150.12967846027234,-11.83498334433207 A 223.1085723436759 223.1085723436759 0 0 0 124.8387876045487,-16.599028699710544"/><text text-anchor="middle" pointer-events="none" font-size="8px" fill="#000000" x="94.25962320631706" y="-14.929045445869377" font-family="sans-serif">re3_RELATION</text></g><g class="relationship" transform="translate(-269.1452090856743 241.31920931329336) rotate(401.20909045926413)"><path class="outline" fill="#FFE081" stroke="none" d="M 38.50762352901147,-10.835724717245364 L 38.766442574113995,-9.869798890956295 A 261.01200137877424 261.01200137877424 0 0 1 73.74339583479153,-16.722498039626515 L 73.61858194299964,-17.71467821097437 A 262.01200137877424 262.01200137877424 0 0 0 38.50762352901147,-10.835724717245364 Z M 134.7812956880476,-18.213306977684596 L 134.6726748004279,-17.219223730278912 A 261.01200137877424 261.01200137877424 0 0 1 169.75670478683327,-10.937696453030592 L 169.02759595367073,-8.027644853934051 L 176.66834332358565,-9.721451108834053 L 170.72884989771669,-14.81776525182598 L 169.99974106455414,-11.90771365272944 A 262.01200137877424 262.01200137877424 0 0 0 134.7812956880476,-18.213306977684596"/><text text-anchor="middle" pointer-events="none" font-size="8px" fill="#000000" x="104.18941488469835" y="-16.254877139129093" font-family="sans-serif">re3_RELATION</text></g><g class="relationship" transform="translate(358.0488255779699 442.4858252194537) rotate(302.6956278706638)"><path class="outline" fill="#FFE081" stroke="none" d="M 38.50762352901147,-10.835724717245364 L 38.766442574113995,-9.869798890956295 A 170.3009764472449 170.3009764472449 0 0 1 50.77937087551768,-12.626909111485446 L 50.59109122808635,-13.609024570259578 A 171.3009764472449 171.3009764472449 0 0 0 38.50762352901147,-10.835724717245364 Z M 111.62685955706114,-14.237158431923774 L 111.45883202169149,-13.251376129710167 A 170.3009764472449 170.3009764472449 0 0 1 123.52595818959688,-10.742079576756517 L 122.80930264785988,-7.828936114017745 L 130.44273552627683,-9.555407223159982 L 124.48149891191287,-14.626270860408214 L 123.76484337017587,-11.713127397669442 A 171.3009764472449 171.3009764472449 0 0 0 111.62685955706114,-14.237158431923774"/><text text-anchor="middle" pointer-events="none" font-size="8px" fill="#000000" x="81.08591757236525" y="-13.163619927132203" font-family="sans-serif">re3_RELATION</text></g></g><g class="layer nodes"><g class="node" transform="translate(-6.371996920881777,352.3604715600894)"><circle class="outline" cx="0" cy="0" r="40" fill="#4C8EDA" stroke="#2870c2" stroke-width="2px"/><text text-anchor="middle" pointer-events="none" font-family="sans-serif" dy="2.5" font-size="40" fill="#FFFFFF"/><text text-anchor="middle" pointer-events="none" y="5" font-size="10px" fill="#FFFFFF" font-family="sans-serif"> 仓储供应管理</text></g><g class="node" transform="translate(34.86073429433108,155.59851678723754)"><circle class="outline" cx="0" cy="0" r="40" fill="#FFC454" stroke="#d7a013" stroke-width="2px"/><text text-anchor="middle" pointer-events="none" font-family="sans-serif" dy="2.5" font-size="40" fill="#604A0E"/><text text-anchor="middle" pointer-events="none" y="5" font-size="10px" fill="#604A0E" font-family="sans-serif"> 仓储供应管理…</text></g><g class="node" transform="translate(29.309778133935254,449.30272406370955)"><circle class="outline" cx="0" cy="0" r="40" fill="#4C8EDA" stroke="#2870c2" stroke-width="2px"/><text text-anchor="middle" pointer-events="none" font-family="sans-serif" dy="2.5" font-size="40" fill="#FFFFFF"/><text text-anchor="middle" pointer-events="none" y="5" font-size="10px" fill="#FFFFFF" font-family="sans-serif"> 台站数据</text></g><g class="node" transform="translate(190.64287048165832,486.2321471417574)"><circle class="outline" cx="0" cy="0" r="40" fill="#FFC454" stroke="#d7a013" stroke-width="2px"/><text text-anchor="middle" pointer-events="none" font-family="sans-serif" dy="2.5" font-size="40" fill="#604A0E"/><text text-anchor="middle" pointer-events="none" y="5" font-size="10px" fill="#604A0E" font-family="sans-serif"> 元数据管理边界</text></g><g class="node" transform="translate(539.3470980096682,276.5025682955525)"><circle class="outline" cx="0" cy="0" r="40" fill="#4C8EDA" stroke="#2870c2" stroke-width="2px"/><text text-anchor="middle" pointer-events="none" font-family="sans-serif" dy="2.5" font-size="40" fill="#FFFFFF"/><text text-anchor="middle" pointer-events="none" y="5" font-size="10px" fill="#FFFFFF" font-family="sans-serif"> 装备维修管理…</text></g><g class="node" transform="translate(715.7021802576907,381.19045442335755)"><circle class="outline" cx="0" cy="0" r="40" fill="#FFC454" stroke="#d7a013" stroke-width="2px"/><text text-anchor="middle" pointer-events="none" font-family="sans-serif" dy="2.5" font-size="40" fill="#604A0E"/><text text-anchor="middle" pointer-events="none" y="5" font-size="10px" fill="#604A0E" font-family="sans-serif"> 装备维修管理…</text></g><g class="node" transform="translate(551.1797881841852,187.2838065734019)"><circle class="outline" cx="0" cy="0" r="40" fill="#4C8EDA" stroke="#2870c2" stroke-width="2px"/><text text-anchor="middle" pointer-events="none" font-family="sans-serif" dy="2.5" font-size="40" fill="#FFFFFF"/><text text-anchor="middle" pointer-events="none" y="5" font-size="10px" fill="#FFFFFF" font-family="sans-serif"> 装备维护管理…</text></g><g class="node" transform="translate(664.5017133352941,23.745030728191203)"><circle class="outline" cx="0" cy="0" r="40" fill="#FFC454" stroke="#d7a013" stroke-width="2px"/><text text-anchor="middle" pointer-events="none" font-family="sans-serif" dy="2.5" font-size="40" fill="#604A0E"/><text text-anchor="middle" pointer-events="none" y="5" font-size="10px" fill="#604A0E" font-family="sans-serif"> 装备维护管理…</text></g><g class="node" transform="translate(412.29224700896617,218.1604170103184)"><circle class="outline" cx="0" cy="0" r="40" fill="#4C8EDA" stroke="#2870c2" stroke-width="2px"/><text text-anchor="middle" pointer-events="none" font-family="sans-serif" dy="2.5" font-size="40" fill="#FFFFFF"/><text text-anchor="middle" pointer-events="none" y="5" font-size="10px" fill="#FFFFFF" font-family="sans-serif"> 备件采购信息</text></g><g class="node" transform="translate(211.73931831436516,270.487508368565)"><circle class="outline" cx="0" cy="0" r="40" fill="#FFC454" stroke="#d7a013" stroke-width="2px"/><text text-anchor="middle" pointer-events="none" font-family="sans-serif" dy="2.5" font-size="40" fill="#604A0E"/><text text-anchor="middle" pointer-events="none" y="5" font-size="10px" fill="#604A0E" font-family="sans-serif"> 台站级备件采购</text></g><g class="node" transform="translate(460.37315065218934,142.08002068609377)"><circle class="outline" cx="0" cy="0" r="40" fill="#4C8EDA" stroke="#2870c2" stroke-width="2px"/><text text-anchor="middle" pointer-events="none" font-family="sans-serif" dy="2.5" font-size="40" fill="#FFFFFF"/><text text-anchor="middle" pointer-events="none" y="5" font-size="10px" fill="#FFFFFF" font-family="sans-serif"> 气象技术装备物…</text></g><g class="node" transform="translate(413.22932658155275,-22.229407488921623)"><circle class="outline" cx="0" cy="0" r="40" fill="#FFC454" stroke="#d7a013" stroke-width="2px"/><text text-anchor="middle" pointer-events="none" font-family="sans-serif" dy="2.5" font-size="40" fill="#604A0E"/><text text-anchor="middle" pointer-events="none" y="5" font-size="10px" fill="#604A0E" font-family="sans-serif"> 制定采购计划</text></g><g class="node" transform="translate(218.22791676842868,-216.67590211813166)"><circle class="outline" cx="0" cy="0" r="40" fill="#4C8EDA" stroke="#2870c2" stroke-width="2px"/><text text-anchor="middle" pointer-events="none" font-family="sans-serif" dy="2.5" font-size="40" fill="#FFFFFF"/><text text-anchor="middle" pointer-events="none" y="5" font-size="10px" fill="#FFFFFF" font-family="sans-serif"> 国家级气象技术…</text></g><g class="node" transform="translate(234.1006768847102,-384.4739555466574)"><circle class="outline" cx="0" cy="0" r="40" fill="#FFC454" stroke="#d7a013" stroke-width="2px"/><text text-anchor="middle" pointer-events="none" font-family="sans-serif" dy="2.5" font-size="40" fill="#604A0E"/><text text-anchor="middle" pointer-events="none" y="5" font-size="10px" fill="#604A0E" font-family="sans-serif"> 国家级备件采购…</text></g><g class="node" transform="translate(292.34169609066686,-146.1133631364595)"><circle class="outline" cx="0" cy="0" r="40" fill="#4C8EDA" stroke="#2870c2" stroke-width="2px"/><text text-anchor="middle" pointer-events="none" font-family="sans-serif" dy="2.5" font-size="40" fill="#FFFFFF"/><text text-anchor="middle" pointer-events="none" y="5" font-size="10px" fill="#FFFFFF" font-family="sans-serif"> 装备入库信息</text></g><g class="node" transform="translate(486.1469949969877,-156.9453519819262)"><circle class="outline" cx="0" cy="0" r="40" fill="#FFC454" stroke="#d7a013" stroke-width="2px"/><text text-anchor="middle" pointer-events="none" font-family="sans-serif" dy="2.5" font-size="40" fill="#604A0E"/><text text-anchor="middle" pointer-events="none" y="5" font-size="10px" fill="#604A0E" font-family="sans-serif"> 省级/台站级装…</text></g><g class="node" transform="translate(141.49798480163753,-172.37661303815509)"><circle class="outline" cx="0" cy="0" r="40" fill="#4C8EDA" stroke="#2870c2" stroke-width="2px"/><text text-anchor="middle" pointer-events="none" font-family="sans-serif" dy="2.5" font-size="40" fill="#FFFFFF"/><text text-anchor="middle" pointer-events="none" y="5" font-size="10px" fill="#FFFFFF" font-family="sans-serif"> 装备借用出库</text></g><g class="node" transform="translate(-30.537277059725,-258.3470015484112)"><circle class="outline" cx="0" cy="0" r="40" fill="#FFC454" stroke="#d7a013" stroke-width="2px"/><text text-anchor="middle" pointer-events="none" font-family="sans-serif" dy="2.5" font-size="40" fill="#604A0E"/><text text-anchor="middle" pointer-events="none" y="5" font-size="10px" fill="#604A0E" font-family="sans-serif"> 借用出库</text></g><g class="node" transform="translate(-28.54314427702002,525.4759707169003)"><circle class="outline" cx="0" cy="0" r="40" fill="#4C8EDA" stroke="#2870c2" stroke-width="2px"/><text text-anchor="middle" pointer-events="none" font-family="sans-serif" dy="2.5" font-size="40" fill="#FFFFFF"/><text text-anchor="middle" pointer-events="none" y="5" font-size="10px" fill="#FFFFFF" font-family="sans-serif"> 气象技术装备物…</text></g><g class="node" transform="translate(5.6057120941277105,693.4579514589662)"><circle class="outline" cx="0" cy="0" r="40" fill="#FFC454" stroke="#d7a013" stroke-width="2px"/><text text-anchor="middle" pointer-events="none" font-family="sans-serif" dy="2.5" font-size="40" fill="#604A0E"/><text text-anchor="middle" pointer-events="none" y="5" font-size="10px" fill="#604A0E" font-family="sans-serif"> 省级/台站调拨…</text></g><g class="node" transform="translate(151.01658169946143,-82.67437202618999)"><circle class="outline" cx="0" cy="0" r="40" fill="#4C8EDA" stroke="#2870c2" stroke-width="2px"/><text text-anchor="middle" pointer-events="none" font-family="sans-serif" dy="2.5" font-size="40" fill="#FFFFFF"/><text text-anchor="middle" pointer-events="none" y="5" font-size="10px" fill="#FFFFFF" font-family="sans-serif"> 国家级调拨出库…</text></g><g class="node" transform="translate(79.98614966609269,35.09393792977971)"><circle class="outline" cx="0" cy="0" r="40" fill="#FFC454" stroke="#d7a013" stroke-width="2px"/><text text-anchor="middle" pointer-events="none" font-family="sans-serif" dy="2.5" font-size="40" fill="#604A0E"/><text text-anchor="middle" pointer-events="none" y="5" font-size="10px" fill="#604A0E" font-family="sans-serif"> 国家级调拨出库</text></g><g class="node" transform="translate(-357.3487996765208,-195.15359656359612)"><circle class="outline" cx="0" cy="0" r="40" fill="#4C8EDA" stroke="#2870c2" stroke-width="2px"/><text text-anchor="middle" pointer-events="none" font-family="sans-serif" dy="2.5" font-size="40" fill="#FFFFFF"/><text text-anchor="middle" pointer-events="none" y="5" font-size="10px" fill="#FFFFFF" font-family="sans-serif"> 气象技术装备使…</text></g><g class="node" transform="translate(-482.0014380893092,-273.22557431010154)"><circle class="outline" cx="0" cy="0" r="40" fill="#FFC454" stroke="#d7a013" stroke-width="2px"/><text text-anchor="middle" pointer-events="none" font-family="sans-serif" dy="2.5" font-size="40" fill="#604A0E"/><text text-anchor="middle" pointer-events="none" y="5" font-size="10px" fill="#604A0E" font-family="sans-serif"> 国家级装备/备…</text></g><g class="node" transform="translate(-263.7086218786261,-203.87980309566763)"><circle class="outline" cx="0" cy="0" r="40" fill="#4C8EDA" stroke="#2870c2" stroke-width="2px"/><text text-anchor="middle" pointer-events="none" font-family="sans-serif" dy="2.5" font-size="40" fill="#FFFFFF"/><text text-anchor="middle" pointer-events="none" y="5" font-size="10px" fill="#FFFFFF" font-family="sans-serif"> 装备调拨信息</text></g><g class="node" transform="translate(-199.55130805730903,-340.56448663057563)"><circle class="outline" cx="0" cy="0" r="40" fill="#FFC454" stroke="#d7a013" stroke-width="2px"/><text text-anchor="middle" pointer-events="none" font-family="sans-serif" dy="2.5" font-size="40" fill="#604A0E"/><text text-anchor="middle" pointer-events="none" y="5" font-size="10px" fill="#604A0E" font-family="sans-serif"> 装备调拨</text></g><g class="node" transform="translate(-367.06442899700073,-105.97384098842078)"><circle class="outline" cx="0" cy="0" r="40" fill="#4C8EDA" stroke="#2870c2" stroke-width="2px"/><text text-anchor="middle" pointer-events="none" font-family="sans-serif" dy="2.5" font-size="40" fill="#FFFFFF"/><text text-anchor="middle" pointer-events="none" y="5" font-size="10px" fill="#FFFFFF" font-family="sans-serif"> 装备报废信息</text></g><g class="node" transform="translate(-498.3447469548209,-6.2671063899733355)"><circle class="outline" cx="0" cy="0" r="40" fill="#FFC454" stroke="#d7a013" stroke-width="2px"/><text text-anchor="middle" pointer-events="none" font-family="sans-serif" dy="2.5" font-size="40" fill="#604A0E"/><text text-anchor="middle" pointer-events="none" y="5" font-size="10px" fill="#604A0E" font-family="sans-serif"> 装备报废</text></g><g class="node" transform="translate(-223.82825677291112,-124.38057500002111)"><circle class="outline" cx="0" cy="0" r="40" fill="#4C8EDA" stroke="#2870c2" stroke-width="2px"/><text text-anchor="middle" pointer-events="none" font-family="sans-serif" dy="2.5" font-size="40" fill="#FFFFFF"/><text text-anchor="middle" pointer-events="none" y="5" font-size="10px" fill="#FFFFFF" font-family="sans-serif"> 维修申请单</text></g><g class="node" transform="translate(-46.29777600458846,-75.85480872027892)"><circle class="outline" cx="0" cy="0" r="40" fill="#FFC454" stroke="#d7a013" stroke-width="2px"/><text text-anchor="middle" pointer-events="none" font-family="sans-serif" dy="2.5" font-size="40" fill="#604A0E"/><text text-anchor="middle" pointer-events="none" y="5" font-size="10px" fill="#604A0E" font-family="sans-serif"> 维修申请</text></g><g class="node" transform="translate(250.77523756456603,-54.52331208145773)"><circle class="outline" cx="0" cy="0" r="40" fill="#4C8EDA" stroke="#2870c2" stroke-width="2px"/><text text-anchor="middle" pointer-events="none" font-family="sans-serif" dy="2.5" font-size="40" fill="#FFFFFF"/><text text-anchor="middle" pointer-events="none" y="5" font-size="10px" fill="#FFFFFF" font-family="sans-serif"> 省级维修信息</text></g><g class="node" transform="translate(295.04656232109346,108.48180033803024)"><circle class="outline" cx="0" cy="0" r="40" fill="#FFC454" stroke="#d7a013" stroke-width="2px"/><text text-anchor="middle" pointer-events="none" font-family="sans-serif" dy="2.5" font-size="40" fill="#604A0E"/><text text-anchor="middle" pointer-events="none" y="5" font-size="10px" fill="#604A0E" font-family="sans-serif"> 省级装备维修</text></g><g class="node" transform="translate(-284.5219317013258,-51.348754875687035)"><circle class="outline" cx="0" cy="0" r="40" fill="#4C8EDA" stroke="#2870c2" stroke-width="2px"/><text text-anchor="middle" pointer-events="none" font-family="sans-serif" dy="2.5" font-size="40" fill="#FFFFFF"/><text text-anchor="middle" pointer-events="none" y="5" font-size="10px" fill="#FFFFFF" font-family="sans-serif"> 地市级装备维修…</text></g><g class="node" transform="translate(-239.1452720255226,90.50986574616539)"><circle class="outline" cx="0" cy="0" r="40" fill="#FFC454" stroke="#d7a013" stroke-width="2px"/><text text-anchor="middle" pointer-events="none" font-family="sans-serif" dy="2.5" font-size="40" fill="#604A0E"/><text text-anchor="middle" pointer-events="none" y="5" font-size="10px" fill="#604A0E" font-family="sans-serif"> 地市级装备维修</text></g><g class="node" transform="translate(-118.86194838112222,482.572368646223)"><circle class="outline" cx="0" cy="0" r="40" fill="#4C8EDA" stroke="#2870c2" stroke-width="2px"/><text text-anchor="middle" pointer-events="none" font-family="sans-serif" dy="2.5" font-size="40" fill="#FFFFFF"/><text text-anchor="middle" pointer-events="none" y="5" font-size="10px" fill="#FFFFFF" font-family="sans-serif"> 装备维护申请单</text></g><g class="node" transform="translate(-311.792855391343,514.8841136514947)"><circle class="outline" cx="0" cy="0" r="40" fill="#FFC454" stroke="#d7a013" stroke-width="2px"/><text text-anchor="middle" pointer-events="none" font-family="sans-serif" dy="2.5" font-size="40" fill="#604A0E"/><text text-anchor="middle" pointer-events="none" y="5" font-size="10px" fill="#604A0E" font-family="sans-serif"> 维护申请</text></g><g class="node" transform="translate(-107.04561750758899,383.2721094758159)"><circle class="outline" cx="0" cy="0" r="40" fill="#4C8EDA" stroke="#2870c2" stroke-width="2px"/><text text-anchor="middle" pointer-events="none" font-family="sans-serif" dy="2.5" font-size="40" fill="#FFFFFF"/><text text-anchor="middle" pointer-events="none" y="5" font-size="10px" fill="#FFFFFF" font-family="sans-serif"> 省级装备维护单</text></g><g class="node" transform="translate(-269.1452090856743,241.31920931329336)"><circle class="outline" cx="0" cy="0" r="40" fill="#FFC454" stroke="#d7a013" stroke-width="2px"/><text text-anchor="middle" pointer-events="none" font-family="sans-serif" dy="2.5" font-size="40" fill="#604A0E"/><text text-anchor="middle" pointer-events="none" y="5" font-size="10px" fill="#604A0E" font-family="sans-serif"> 省级装备维护</text></g><g class="node" transform="translate(449.49234754252205,300.02399011252686)"><circle class="outline" cx="0" cy="0" r="40" fill="#4C8EDA" stroke="#2870c2" stroke-width="2px"/><text text-anchor="middle" pointer-events="none" font-family="sans-serif" dy="2.5" font-size="40" fill="#FFFFFF"/><text text-anchor="middle" pointer-events="none" y="5" font-size="10px" fill="#FFFFFF" font-family="sans-serif"> 地市级装备维…</text></g><g class="node" transform="translate(358.0488255779699,442.4858252194537)"><circle class="outline" cx="0" cy="0" r="40" fill="#FFC454" stroke="#d7a013" stroke-width="2px"/><text text-anchor="middle" pointer-events="none" font-family="sans-serif" dy="2.5" font-size="40" fill="#604A0E"/><text text-anchor="middle" pointer-events="none" y="5" font-size="10px" fill="#604A0E" font-family="sans-serif"> 地市级装备维护</text></g></g></svg>