<svg xmlns="http://www.w3.org/2000/svg" width="983.7142333984375" height="802.1351318359375" viewBox="-149.32052612304688 -352.54742431640625 983.7142333984375 802.1351318359375"><title>Neo4j Graph Visualization</title><desc>Created using Neo4j (http://www.neo4j.com/)</desc><g class="layer relationships"><g class="relationship" transform="translate(414.6586625865636 -31.227678855823186) rotate(472.1812237502403)"><path class="outline" fill="#FFE081" stroke="none" d="M 40 0.5 L 41.36570210178919 0.5 L 41.36570210178919 -0.5 L 40 -0.5 Z M 70.2758583517892 0.5 L 71.64156045357838 0.5 L 71.64156045357838 3.5 L 78.64156045357838 0 L 71.64156045357838 -3.5 L 71.64156045357838 -0.5 L 70.2758583517892 -0.5 Z"/><text text-anchor="middle" pointer-events="none" font-size="8px" fill="#000000" x="55.82078022678919" y="3" transform="rotate(180 55.82078022678919 0)" font-family="sans-serif">re_R…</text></g><g class="relationship" transform="translate(414.6586625865636 -31.227678855823186) rotate(228.36399694772547)"><path class="outline" fill="#FFE081" stroke="none" d="M 40 0.5 L 116.25160010625717 0.5 L 116.25160010625717 -0.5 L 40 -0.5 Z M 172.74769385625717 0.5 L 248.99929396251434 0.5 L 248.99929396251434 3.5 L 255.99929396251434 0 L 248.99929396251434 -3.5 L 248.99929396251434 -0.5 L 172.74769385625717 -0.5 Z"/><text text-anchor="middle" pointer-events="none" font-size="8px" fill="#000000" x="144.49964698125717" y="3" transform="rotate(180 144.49964698125717 0)" font-family="sans-serif">re_RELATION</text></g><g class="relationship" transform="translate(414.6586625865636 -31.227678855823186) rotate(473.4750061149815)"><path class="outline" fill="#FFE081" stroke="none" d="M 40 0.5 L 72.37581258769863 0.5 L 72.37581258769863 -0.5 L 40 -0.5 Z M 128.87190633769865 0.5 L 161.24771892539727 0.5 L 161.24771892539727 3.5 L 168.24771892539727 0 L 161.24771892539727 -3.5 L 161.24771892539727 -0.5 L 128.87190633769865 -0.5 Z"/><text text-anchor="middle" pointer-events="none" font-size="8px" fill="#000000" x="100.62385946269863" y="3" transform="rotate(180 100.62385946269863 0)" font-family="sans-serif">re_RELATION</text></g><g class="relationship" transform="translate(414.6586625865636 -31.227678855823186) rotate(371.0984361482256)"><path class="outline" fill="#FFE081" stroke="none" d="M 40 0.5 L 41.093900993248944 0.5 L 41.093900993248944 -0.5 L 40 -0.5 Z M 61.195463493248944 0.5 L 62.28936448649789 0.5 L 62.28936448649789 3.5 L 69.28936448649789 0 L 62.28936448649789 -3.5 L 62.28936448649789 -0.5 L 61.195463493248944 -0.5 Z"/><text text-anchor="middle" pointer-events="none" font-size="8px" fill="#000000" x="51.144682243248944" y="3" font-family="sans-serif">re…</text></g><g class="relationship" transform="translate(414.6586625865636 -31.227678855823186) rotate(242.55018238426726)"><path class="outline" fill="#FFE081" stroke="none" d="M 40 0.5 L 40.36931846886841 0.5 L 40.36931846886841 -0.5 L 40 -0.5 Z M 69.27947471886841 0.5 L 69.64879318773681 0.5 L 69.64879318773681 3.5 L 76.64879318773681 0 L 69.64879318773681 -3.5 L 69.64879318773681 -0.5 L 69.27947471886841 -0.5 Z"/><text text-anchor="middle" pointer-events="none" font-size="8px" fill="#000000" x="54.82439659386841" y="3" transform="rotate(180 54.82439659386841 0)" font-family="sans-serif">re_R…</text></g><g class="relationship" transform="translate(414.6586625865636 -31.227678855823186) rotate(325.36734567794474)"><path class="outline" fill="#FFE081" stroke="none" d="M 40 0.5 L 40.26809952351124 0.5 L 40.26809952351124 -0.5 L 40 -0.5 Z M 73.57669327351124 0.5 L 73.84479279702248 0.5 L 73.84479279702248 3.5 L 80.84479279702248 0 L 73.84479279702248 -3.5 L 73.84479279702248 -0.5 L 73.57669327351124 -0.5 Z"/><text text-anchor="middle" pointer-events="none" font-size="8px" fill="#000000" x="56.92239639851124" y="3" font-family="sans-serif">re_RE…</text></g><g class="relationship" transform="translate(414.6586625865636 -31.227678855823186) rotate(523.8983135156857)"><path class="outline" fill="#FFE081" stroke="none" d="M 40 0.5 L 73.20500102265598 0.5 L 73.20500102265598 -0.5 L 40 -0.5 Z M 129.70109477265598 0.5 L 162.90609579531196 0.5 L 162.90609579531196 3.5 L 169.90609579531196 0 L 162.90609579531196 -3.5 L 162.90609579531196 -0.5 L 129.70109477265598 -0.5 Z"/><text text-anchor="middle" pointer-events="none" font-size="8px" fill="#000000" x="101.45304789765598" y="3" transform="rotate(180 101.45304789765598 0)" font-family="sans-serif">re_RELATION</text></g><g class="relationship" transform="translate(414.6586625865636 -31.227678855823186) rotate(437.28628773480136)"><path class="outline" fill="#FFE081" stroke="none" d="M 40 0.5 L 99.95661743136031 0.5 L 99.95661743136031 -0.5 L 40 -0.5 Z M 156.4527111813603 0.5 L 216.40932861272063 0.5 L 216.40932861272063 3.5 L 223.40932861272063 0 L 216.40932861272063 -3.5 L 216.40932861272063 -0.5 L 156.4527111813603 -0.5 Z"/><text text-anchor="middle" pointer-events="none" font-size="8px" fill="#000000" x="128.2046643063603" y="3" font-family="sans-serif">re_RELATION</text></g><g class="relationship" transform="translate(414.6586625865636 -31.227678855823186) rotate(456.79932736451303)"><path class="outline" fill="#FFE081" stroke="none" d="M 40 0.5 L 101.4358450179349 0.5 L 101.4358450179349 -0.5 L 40 -0.5 Z M 157.9319387679349 0.5 L 219.3677837858698 0.5 L 219.3677837858698 3.5 L 226.3677837858698 0 L 219.3677837858698 -3.5 L 219.3677837858698 -0.5 L 157.9319387679349 -0.5 Z"/><text text-anchor="middle" pointer-events="none" font-size="8px" fill="#000000" x="129.6838918929349" y="3" transform="rotate(180 129.6838918929349 0)" font-family="sans-serif">re_RELATION</text></g><g class="relationship" transform="translate(414.6586625865636 -31.227678855823186) rotate(498.8158112009271)"><path class="outline" fill="#FFE081" stroke="none" d="M 40 0.5 L 68.37250920634963 0.5 L 68.37250920634963 -0.5 L 40 -0.5 Z M 124.86860295634963 0.5 L 153.24111216269927 0.5 L 153.24111216269927 3.5 L 160.24111216269927 0 L 153.24111216269927 -3.5 L 153.24111216269927 -0.5 L 124.86860295634963 -0.5 Z"/><text text-anchor="middle" pointer-events="none" font-size="8px" fill="#000000" x="96.62055608134963" y="3" transform="rotate(180 96.62055608134963 0)" font-family="sans-serif">re_RELATION</text></g><g class="relationship" transform="translate(414.6586625865636 -31.227678855823186) rotate(447.98387604659393)"><path class="outline" fill="#FFE081" stroke="none" d="M 40 0.5 L 59.960817455082335 0.5 L 59.960817455082335 -0.5 L 40 -0.5 Z M 116.45691120508233 0.5 L 136.41772866016467 0.5 L 136.41772866016467 3.5 L 143.41772866016467 0 L 136.41772866016467 -3.5 L 136.41772866016467 -0.5 L 116.45691120508233 -0.5 Z"/><text text-anchor="middle" pointer-events="none" font-size="8px" fill="#000000" x="88.20886433008233" y="3" font-family="sans-serif">re_RELATION</text></g><g class="relationship" transform="translate(414.6586625865636 -31.227678855823186) rotate(356.8924372829018)"><path class="outline" fill="#FFE081" stroke="none" d="M 40 0.5 L 64.01808471907913 0.5 L 64.01808471907913 -0.5 L 40 -0.5 Z M 120.51417846907913 0.5 L 144.53226318815825 0.5 L 144.53226318815825 3.5 L 151.53226318815825 0 L 144.53226318815825 -3.5 L 144.53226318815825 -0.5 L 120.51417846907913 -0.5 Z"/><text text-anchor="middle" pointer-events="none" font-size="8px" fill="#000000" x="92.26613159407913" y="3" font-family="sans-serif">re_RELATION</text></g><g class="relationship" transform="translate(414.6586625865636 -31.227678855823186) rotate(394.6465832363766)"><path class="outline" fill="#FFE081" stroke="none" d="M 40 0.5 L 57.44000651184035 0.5 L 57.44000651184035 -0.5 L 40 -0.5 Z M 113.93610026184035 0.5 L 131.3761067736807 0.5 L 131.3761067736807 3.5 L 138.3761067736807 0 L 131.3761067736807 -3.5 L 131.3761067736807 -0.5 L 113.93610026184035 -0.5 Z"/><text text-anchor="middle" pointer-events="none" font-size="8px" fill="#000000" x="85.68805338684035" y="3" font-family="sans-serif">re_RELATION</text></g><g class="relationship" transform="translate(414.6586625865636 -31.227678855823186) rotate(421.3781164756632)"><path class="outline" fill="#FFE081" stroke="none" d="M 40 0.5 L 68.28858739546077 0.5 L 68.28858739546077 -0.5 L 40 -0.5 Z M 124.78468114546077 0.5 L 153.07326854092153 0.5 L 153.07326854092153 3.5 L 160.07326854092153 0 L 153.07326854092153 -3.5 L 153.07326854092153 -0.5 L 124.78468114546077 -0.5 Z"/><text text-anchor="middle" pointer-events="none" font-size="8px" fill="#000000" x="96.53663427046077" y="3" font-family="sans-serif">re_RELATION</text></g><g class="relationship" transform="translate(414.6586625865636 -31.227678855823186) rotate(404.5558335648235)"><path class="outline" fill="#FFE081" stroke="none" d="M 40 0.5 L 98.32608975918123 0.5 L 98.32608975918123 -0.5 L 40 -0.5 Z M 154.82218350918123 0.5 L 213.14827326836246 0.5 L 213.14827326836246 3.5 L 220.14827326836246 0 L 213.14827326836246 -3.5 L 213.14827326836246 -0.5 L 154.82218350918123 -0.5 Z"/><text text-anchor="middle" pointer-events="none" font-size="8px" fill="#000000" x="126.57413663418123" y="3" font-family="sans-serif">re_RELATION</text></g><g class="relationship" transform="translate(414.6586625865636 -31.227678855823186) rotate(284.1752599915876)"><path class="outline" fill="#FFE081" stroke="none" d="M 40 0.5 L 41.12235078789338 0.5 L 41.12235078789338 -0.5 L 40 -0.5 Z M 84.16531953789338 0.5 L 85.28767032578676 0.5 L 85.28767032578676 3.5 L 92.28767032578676 0 L 85.28767032578676 -3.5 L 85.28767032578676 -0.5 L 84.16531953789338 -0.5 Z"/><text text-anchor="middle" pointer-events="none" font-size="8px" fill="#000000" x="62.64383516289338" y="3" font-family="sans-serif">re_RELA…</text></g><g class="relationship" transform="translate(414.6586625865636 -31.227678855823186) rotate(335.7422597884529)"><path class="outline" fill="#FFE081" stroke="none" d="M 40 0.5 L 86.40244313028461 0.5 L 86.40244313028461 -0.5 L 40 -0.5 Z M 142.8985368802846 0.5 L 189.30098001056922 0.5 L 189.30098001056922 3.5 L 196.30098001056922 0 L 189.30098001056922 -3.5 L 189.30098001056922 -0.5 L 142.8985368802846 -0.5 Z"/><text text-anchor="middle" pointer-events="none" font-size="8px" fill="#000000" x="114.65049000528461" y="3" font-family="sans-serif">re_RELATION</text></g><g class="relationship" transform="translate(414.6586625865636 -31.227678855823186) rotate(307.8020306082394)"><path class="outline" fill="#FFE081" stroke="none" d="M 40 0.5 L 72.24056432220657 0.5 L 72.24056432220657 -0.5 L 40 -0.5 Z M 128.73665807220658 0.5 L 160.97722239441313 0.5 L 160.97722239441313 3.5 L 167.97722239441313 0 L 160.97722239441313 -3.5 L 160.97722239441313 -0.5 L 128.73665807220658 -0.5 Z"/><text text-anchor="middle" pointer-events="none" font-size="8px" fill="#000000" x="100.48861119720657" y="3" font-family="sans-serif">re_RELATION</text></g><g class="relationship" transform="translate(414.6586625865636 -31.227678855823186) rotate(515.7856030251569)"><path class="outline" fill="#FFE081" stroke="none" d="M 40 0.5 L 41.52027499742656 0.5 L 41.52027499742656 -0.5 L 40 -0.5 Z M 74.82886874742655 0.5 L 76.34914374485312 0.5 L 76.34914374485312 3.5 L 83.34914374485312 0 L 76.34914374485312 -3.5 L 76.34914374485312 -0.5 L 74.82886874742655 -0.5 Z"/><text text-anchor="middle" pointer-events="none" font-size="8px" fill="#000000" x="58.17457187242656" y="3" transform="rotate(180 58.17457187242656 0)" font-family="sans-serif">re_RE…</text></g><g class="relationship" transform="translate(414.6586625865636 -31.227678855823186) rotate(198.64900105174894)"><path class="outline" fill="#FFE081" stroke="none" d="M 40 0.5 L 41.12879561955142 0.5 L 41.12879561955142 -0.5 L 40 -0.5 Z M 74.43738936955143 0.5 L 75.56618498910284 0.5 L 75.56618498910284 3.5 L 82.56618498910284 0 L 75.56618498910284 -3.5 L 75.56618498910284 -0.5 L 74.43738936955143 -0.5 Z"/><text text-anchor="middle" pointer-events="none" font-size="8px" fill="#000000" x="57.78309249455142" y="3" transform="rotate(180 57.78309249455142 0)" font-family="sans-serif">re_RE…</text></g><g class="relationship" transform="translate(414.6586625865636 -31.227678855823186) rotate(284.23552313637333)"><path class="outline" fill="#FFE081" stroke="none" d="M 40 0.5 L 79.09851589849333 0.5 L 79.09851589849333 -0.5 L 40 -0.5 Z M 135.59460964849333 0.5 L 174.69312554698666 0.5 L 174.69312554698666 3.5 L 181.69312554698666 0 L 174.69312554698666 -3.5 L 174.69312554698666 -0.5 L 135.59460964849333 -0.5 Z"/><text text-anchor="middle" pointer-events="none" font-size="8px" fill="#000000" x="107.34656277349333" y="3" font-family="sans-serif">re_RELATION</text></g><g class="relationship" transform="translate(414.6586625865636 -31.227678855823186) rotate(426.1892744989058)"><path class="outline" fill="#FFE081" stroke="none" d="M 40 0.5 L 40.35774369750572 0.5 L 40.35774369750572 -0.5 L 40 -0.5 Z M 64.04524369750573 0.5 L 64.40298739501144 0.5 L 64.40298739501144 3.5 L 71.40298739501144 0 L 64.40298739501144 -3.5 L 64.40298739501144 -0.5 L 64.04524369750573 -0.5 Z"/><text text-anchor="middle" pointer-events="none" font-size="8px" fill="#000000" x="52.20149369750572" y="3" font-family="sans-serif">re_…</text></g><g class="relationship" transform="translate(414.6586625865636 -31.227678855823186) rotate(188.83494947874317)"><path class="outline" fill="#FFE081" stroke="none" d="M 40 0.5 L 72.10509679643006 0.5 L 72.10509679643006 -0.5 L 40 -0.5 Z M 128.60119054643008 0.5 L 160.70628734286012 0.5 L 160.70628734286012 3.5 L 167.70628734286012 0 L 160.70628734286012 -3.5 L 160.70628734286012 -0.5 L 128.60119054643008 -0.5 Z"/><text text-anchor="middle" pointer-events="none" font-size="8px" fill="#000000" x="100.35314367143006" y="3" transform="rotate(180 100.35314367143006 0)" font-family="sans-serif">re_RELATION</text></g><g class="relationship" transform="translate(414.6586625865636 -31.227678855823186) rotate(260.4265495768833)"><path class="outline" fill="#FFE081" stroke="none" d="M 40 0.5 L 64.93696263947665 0.5 L 64.93696263947665 -0.5 L 40 -0.5 Z M 121.43305638947665 0.5 L 146.3700190289533 0.5 L 146.3700190289533 3.5 L 153.3700190289533 0 L 146.3700190289533 -3.5 L 146.3700190289533 -0.5 L 121.43305638947665 -0.5 Z"/><text text-anchor="middle" pointer-events="none" font-size="8px" fill="#000000" x="93.18500951447665" y="3" transform="rotate(180 93.18500951447665 0)" font-family="sans-serif">re_RELATION</text></g><g class="relationship" transform="translate(414.6586625865636 -31.227678855823186) rotate(244.81045558883892)"><path class="outline" fill="#FFE081" stroke="none" d="M 40 0.5 L 108.79640416420898 0.5 L 108.79640416420898 -0.5 L 40 -0.5 Z M 165.29249791420898 0.5 L 234.08890207841796 0.5 L 234.08890207841796 3.5 L 241.08890207841796 0 L 234.08890207841796 -3.5 L 234.08890207841796 -0.5 L 165.29249791420898 -0.5 Z"/><text text-anchor="middle" pointer-events="none" font-size="8px" fill="#000000" x="137.04445103920898" y="3" transform="rotate(180 137.04445103920898 0)" font-family="sans-serif">re_RELATION</text></g><g class="relationship" transform="translate(414.6586625865636 -31.227678855823186) rotate(211.64060626914295)"><path class="outline" fill="#FFE081" stroke="none" d="M 40 0.5 L 83.53444610716646 0.5 L 83.53444610716646 -0.5 L 40 -0.5 Z M 140.03053985716645 0.5 L 183.56498596433292 0.5 L 183.56498596433292 3.5 L 190.56498596433292 0 L 183.56498596433292 -3.5 L 183.56498596433292 -0.5 L 140.03053985716645 -0.5 Z"/><text text-anchor="middle" pointer-events="none" font-size="8px" fill="#000000" x="111.78249298216646" y="3" transform="rotate(180 111.78249298216646 0)" font-family="sans-serif">re_RELATION</text></g><g class="relationship" transform="translate(414.6586625865636 -31.227678855823186) rotate(234.40661499910033)"><path class="outline" fill="#FFE081" stroke="none" d="M 40 0.5 L 70.08481666637337 0.5 L 70.08481666637337 -0.5 L 40 -0.5 Z M 126.58091041637337 0.5 L 156.66572708274674 0.5 L 156.66572708274674 3.5 L 163.66572708274674 0 L 156.66572708274674 -3.5 L 156.66572708274674 -0.5 L 126.58091041637337 -0.5 Z"/><text text-anchor="middle" pointer-events="none" font-size="8px" fill="#000000" x="98.33286354137337" y="3" transform="rotate(180 98.33286354137337 0)" font-family="sans-serif">re_RELATION</text></g><g class="relationship" transform="translate(414.6586625865636 -31.227678855823186) rotate(208.42624763506734)"><path class="outline" fill="#FFE081" stroke="none" d="M 40 0.5 L 130.56431985917453 0.5 L 130.56431985917453 -0.5 L 40 -0.5 Z M 187.06041360917453 0.5 L 277.62473346834906 0.5 L 277.62473346834906 3.5 L 284.62473346834906 0 L 277.62473346834906 -3.5 L 277.62473346834906 -0.5 L 187.06041360917453 -0.5 Z"/><text text-anchor="middle" pointer-events="none" font-size="8px" fill="#000000" x="158.81236673417453" y="3" transform="rotate(180 158.81236673417453 0)" font-family="sans-serif">re_RELATION</text></g><g class="relationship" transform="translate(414.6586625865636 -31.227678855823186) rotate(381.26944846092226)"><path class="outline" fill="#FFE081" stroke="none" d="M 40 0.5 L 96.91845476876787 0.5 L 96.91845476876787 -0.5 L 40 -0.5 Z M 153.41454851876787 0.5 L 210.33300328753575 0.5 L 210.33300328753575 3.5 L 217.33300328753575 0 L 210.33300328753575 -3.5 L 210.33300328753575 -0.5 L 153.41454851876787 -0.5 Z"/><text text-anchor="middle" pointer-events="none" font-size="8px" fill="#000000" x="125.16650164376787" y="3" font-family="sans-serif">re_RELATION</text></g><g class="relationship" transform="translate(414.6586625865636 -31.227678855823186) rotate(268.0267610776487)"><path class="outline" fill="#FFE081" stroke="none" d="M 40 0.5 L 106.99409929548384 0.5 L 106.99409929548384 -0.5 L 40 -0.5 Z M 163.49019304548384 0.5 L 230.48429234096767 0.5 L 230.48429234096767 3.5 L 237.48429234096767 0 L 230.48429234096767 -3.5 L 230.48429234096767 -0.5 L 163.49019304548384 -0.5 Z"/><text text-anchor="middle" pointer-events="none" font-size="8px" fill="#000000" x="135.24214617048384" y="3" transform="rotate(180 135.24214617048384 0)" font-family="sans-serif">re_RELATION</text></g><g class="relationship" transform="translate(414.6586625865636 -31.227678855823186) rotate(310.7510871059968)"><path class="outline" fill="#FFE081" stroke="none" d="M 40 0.5 L 120.14672639007154 0.5 L 120.14672639007154 -0.5 L 40 -0.5 Z M 176.64282014007154 0.5 L 256.78954653014307 0.5 L 256.78954653014307 3.5 L 263.78954653014307 0 L 256.78954653014307 -3.5 L 256.78954653014307 -0.5 L 176.64282014007154 -0.5 Z"/><text text-anchor="middle" pointer-events="none" font-size="8px" fill="#000000" x="148.39477326507154" y="3" font-family="sans-serif">re_RELATION</text></g><g class="relationship" transform="translate(414.6586625865636 -31.227678855823186) rotate(191.2382871414154)"><path class="outline" fill="#FFE081" stroke="none" d="M 40 0.5 L 130.88009009432264 0.5 L 130.88009009432264 -0.5 L 40 -0.5 Z M 187.37618384432264 0.5 L 278.2562739386453 0.5 L 278.2562739386453 3.5 L 285.2562739386453 0 L 278.2562739386453 -3.5 L 278.2562739386453 -0.5 L 187.37618384432264 -0.5 Z"/><text text-anchor="middle" pointer-events="none" font-size="8px" fill="#000000" x="159.12813696932264" y="3" transform="rotate(180 159.12813696932264 0)" font-family="sans-serif">re_RELATION</text></g><g class="relationship" transform="translate(414.6586625865636 -31.227678855823186) rotate(519.3182682230292)"><path class="outline" fill="#FFE081" stroke="none" d="M 40 0.5 L 117.1375925773639 0.5 L 117.1375925773639 -0.5 L 40 -0.5 Z M 173.6336863273639 0.5 L 250.7712789047278 0.5 L 250.7712789047278 3.5 L 257.7712789047278 0 L 250.7712789047278 -3.5 L 250.7712789047278 -0.5 L 173.6336863273639 -0.5 Z"/><text text-anchor="middle" pointer-events="none" font-size="8px" fill="#000000" x="145.3856394523639" y="3" transform="rotate(180 145.3856394523639 0)" font-family="sans-serif">re_RELATION</text></g><g class="relationship" transform="translate(414.6586625865636 -31.227678855823186) rotate(499.01484256713917)"><path class="outline" fill="#FFE081" stroke="none" d="M 40 0.5 L 116.92324192379354 0.5 L 116.92324192379354 -0.5 L 40 -0.5 Z M 173.41933567379354 0.5 L 250.34257759758708 0.5 L 250.34257759758708 3.5 L 257.3425775975871 0 L 250.34257759758708 -3.5 L 250.34257759758708 -0.5 L 173.41933567379354 -0.5 Z"/><text text-anchor="middle" pointer-events="none" font-size="8px" fill="#000000" x="145.17128879879354" y="3" transform="rotate(180 145.17128879879354 0)" font-family="sans-serif">re_RELATION</text></g><g class="relationship" transform="translate(414.6586625865636 -31.227678855823186) rotate(536.6858473559107)"><path class="outline" fill="#FFE081" stroke="none" d="M 40 0.5 L 109.21286919855237 0.5 L 109.21286919855237 -0.5 L 40 -0.5 Z M 165.70896294855237 0.5 L 234.92183214710474 0.5 L 234.92183214710474 3.5 L 241.92183214710474 0 L 234.92183214710474 -3.5 L 234.92183214710474 -0.5 L 165.70896294855237 -0.5 Z"/><text text-anchor="middle" pointer-events="none" font-size="8px" fill="#000000" x="137.46091607355237" y="3" transform="rotate(180 137.46091607355237 0)" font-family="sans-serif">re_RELATION</text></g><g class="relationship" transform="translate(133.20832574341716 -14.929601298647903) rotate(510.89278010105477)"><path class="outline" fill="#FFE081" stroke="none" d="M 40 0.5 L 92.8650688424795 0.5 L 92.8650688424795 -0.5 L 40 -0.5 Z M 149.3611625924795 0.5 L 202.226231434959 0.5 L 202.226231434959 3.5 L 209.226231434959 0 L 202.226231434959 -3.5 L 202.226231434959 -0.5 L 149.3611625924795 -0.5 Z"/><text text-anchor="middle" pointer-events="none" font-size="8px" fill="#000000" x="121.1131157174795" y="3" transform="rotate(180 121.1131157174795 0)" font-family="sans-serif">re_RELATION</text></g><g class="relationship" transform="translate(133.20832574341716 -14.929601298647903) rotate(515.0958203133205)"><path class="outline" fill="#FFE081" stroke="none" d="M 40 0.5 L 48.57419129083506 0.5 L 48.57419129083506 -0.5 L 40 -0.5 Z M 105.07028504083506 0.5 L 113.64447633167012 0.5 L 113.64447633167012 3.5 L 120.64447633167012 0 L 113.64447633167012 -3.5 L 113.64447633167012 -0.5 L 105.07028504083506 -0.5 Z"/><text text-anchor="middle" pointer-events="none" font-size="8px" fill="#000000" x="76.82223816583506" y="3" transform="rotate(180 76.82223816583506 0)" font-family="sans-serif">re_RELATION</text></g><g class="relationship" transform="translate(133.20832574341716 -14.929601298647903) rotate(187.93217896864644)"><path class="outline" fill="#FFE081" stroke="none" d="M 40 0.5 L 47.07461225399709 0.5 L 47.07461225399709 -0.5 L 40 -0.5 Z M 103.57070600399709 0.5 L 110.64531825799418 0.5 L 110.64531825799418 3.5 L 117.64531825799418 0 L 110.64531825799418 -3.5 L 110.64531825799418 -0.5 L 103.57070600399709 -0.5 Z"/><text text-anchor="middle" pointer-events="none" font-size="8px" fill="#000000" x="75.32265912899709" y="3" transform="rotate(180 75.32265912899709 0)" font-family="sans-serif">re_RELATION</text></g><g class="relationship" transform="translate(133.20832574341716 -14.929601298647903) rotate(532.0336955989081)"><path class="outline" fill="#FFE081" stroke="none" d="M 40 0.5 L 83.44546862121543 0.5 L 83.44546862121543 -0.5 L 40 -0.5 Z M 139.9415623712154 0.5 L 183.38703099243085 0.5 L 183.38703099243085 3.5 L 190.38703099243085 0 L 183.38703099243085 -3.5 L 183.38703099243085 -0.5 L 139.9415623712154 -0.5 Z"/><text text-anchor="middle" pointer-events="none" font-size="8px" fill="#000000" x="111.69351549621543" y="3" transform="rotate(180 111.69351549621543 0)" font-family="sans-serif">re_RELATION</text></g><g class="relationship" transform="translate(133.20832574341716 -14.929601298647903) rotate(213.7330445421254)"><path class="outline" fill="#FFE081" stroke="none" d="M 40 0.5 L 68.35469395325387 0.5 L 68.35469395325387 -0.5 L 40 -0.5 Z M 124.85078770325387 0.5 L 153.20548165650774 0.5 L 153.20548165650774 3.5 L 160.20548165650774 0 L 153.20548165650774 -3.5 L 153.20548165650774 -0.5 L 124.85078770325387 -0.5 Z"/><text text-anchor="middle" pointer-events="none" font-size="8px" fill="#000000" x="96.60274082825387" y="3" transform="rotate(180 96.60274082825387 0)" font-family="sans-serif">re_RELATION</text></g><g class="relationship" transform="translate(133.20832574341716 -14.929601298647903) rotate(490.75392179900643)"><path class="outline" fill="#FFE081" stroke="none" d="M 40 0.5 L 71.86198558111094 0.5 L 71.86198558111094 -0.5 L 40 -0.5 Z M 128.35807933111096 0.5 L 160.2200649122219 0.5 L 160.2200649122219 3.5 L 167.2200649122219 0 L 160.2200649122219 -3.5 L 160.2200649122219 -0.5 L 128.35807933111096 -0.5 Z"/><text text-anchor="middle" pointer-events="none" font-size="8px" fill="#000000" x="100.11003245611094" y="3" transform="rotate(180 100.11003245611094 0)" font-family="sans-serif">re_RELATION</text></g><g class="relationship" transform="translate(133.20832574341716 -14.929601298647903) rotate(193.5334157571175)"><path class="outline" fill="#FFE081" stroke="none" d="M 40 0.5 L 90.92249358877132 0.5 L 90.92249358877132 -0.5 L 40 -0.5 Z M 147.41858733877132 0.5 L 198.34108092754263 0.5 L 198.34108092754263 3.5 L 205.34108092754263 0 L 198.34108092754263 -3.5 L 198.34108092754263 -0.5 L 147.41858733877132 -0.5 Z"/><text text-anchor="middle" pointer-events="none" font-size="8px" fill="#000000" x="119.17054046377132" y="3" transform="rotate(180 119.17054046377132 0)" font-family="sans-serif">re_RELATION</text></g><g class="relationship" transform="translate(414.6586625865636 -31.227678855823186) rotate(484.3513458356445)"><path class="outline" fill="#FFE081" stroke="none" d="M 40 0.5 L 112.5408207000836 0.5 L 112.5408207000836 -0.5 L 40 -0.5 Z M 169.0369144500836 0.5 L 241.5777351501672 0.5 L 241.5777351501672 3.5 L 248.5777351501672 0 L 241.5777351501672 -3.5 L 241.5777351501672 -0.5 L 169.0369144500836 -0.5 Z"/><text text-anchor="middle" pointer-events="none" font-size="8px" fill="#000000" x="140.7888675750836" y="3" transform="rotate(180 140.7888675750836 0)" font-family="sans-serif">re_RELATION</text></g><g class="relationship" transform="translate(251.82401968520452 207.02006676958018) rotate(515.2058808736641)"><path class="outline" fill="#FFE081" stroke="none" d="M 40 0.5 L 66.92779397680921 0.5 L 66.92779397680921 -0.5 L 40 -0.5 Z M 123.42388772680921 0.5 L 150.35168170361842 0.5 L 150.35168170361842 3.5 L 157.35168170361842 0 L 150.35168170361842 -3.5 L 150.35168170361842 -0.5 L 123.42388772680921 -0.5 Z"/><text text-anchor="middle" pointer-events="none" font-size="8px" fill="#000000" x="95.17584085180921" y="3" transform="rotate(180 95.17584085180921 0)" font-family="sans-serif">re_RELATION</text></g><g class="relationship" transform="translate(251.82401968520452 207.02006676958018) rotate(491.2395118452252)"><path class="outline" fill="#FFE081" stroke="none" d="M 40 0.5 L 78.67808369687278 0.5 L 78.67808369687278 -0.5 L 40 -0.5 Z M 135.17417744687276 0.5 L 173.85226114374555 0.5 L 173.85226114374555 3.5 L 180.85226114374555 0 L 173.85226114374555 -3.5 L 173.85226114374555 -0.5 L 135.17417744687276 -0.5 Z"/><text text-anchor="middle" pointer-events="none" font-size="8px" fill="#000000" x="106.92613057187278" y="3" transform="rotate(180 106.92613057187278 0)" font-family="sans-serif">re_RELATION</text></g><g class="relationship" transform="translate(251.82401968520452 207.02006676958018) rotate(467.2919380204763)"><path class="outline" fill="#FFE081" stroke="none" d="M 40 0.5 L 72.23557679082082 0.5 L 72.23557679082082 -0.5 L 40 -0.5 Z M 128.7316705408208 0.5 L 160.96724733164163 0.5 L 160.96724733164163 3.5 L 167.96724733164163 0 L 160.96724733164163 -3.5 L 160.96724733164163 -0.5 L 128.7316705408208 -0.5 Z"/><text text-anchor="middle" pointer-events="none" font-size="8px" fill="#000000" x="100.48362366582082" y="3" transform="rotate(180 100.48362366582082 0)" font-family="sans-serif">re_RELATION</text></g><g class="relationship" transform="translate(251.82401968520452 207.02006676958018) rotate(441.77005903200484)"><path class="outline" fill="#FFE081" stroke="none" d="M 40 0.5 L 65.97836161005209 0.5 L 65.97836161005209 -0.5 L 40 -0.5 Z M 122.47445536005209 0.5 L 148.45281697010418 0.5 L 148.45281697010418 3.5 L 155.45281697010418 0 L 148.45281697010418 -3.5 L 148.45281697010418 -0.5 L 122.47445536005209 -0.5 Z"/><text text-anchor="middle" pointer-events="none" font-size="8px" fill="#000000" x="94.22640848505209" y="3" font-family="sans-serif">re_RELATION</text></g><g class="relationship" transform="translate(414.6586625865636 -31.227678855823186) rotate(351.99777427922095)"><path class="outline" fill="#FFE081" stroke="none" d="M 40 0.5 L 157.96679893820067 0.5 L 157.96679893820067 -0.5 L 40 -0.5 Z M 214.46289268820067 0.5 L 332.42969162640134 0.5 L 332.42969162640134 3.5 L 339.42969162640134 0 L 332.42969162640134 -3.5 L 332.42969162640134 -0.5 L 214.46289268820067 -0.5 Z"/><text text-anchor="middle" pointer-events="none" font-size="8px" fill="#000000" x="186.21484581320067" y="3" font-family="sans-serif">re_RELATION</text></g><g class="relationship" transform="translate(654.4633742487624 62.1209946515844) rotate(535.049620831453)"><path class="outline" fill="#FFE081" stroke="none" d="M 40 0.5 L 43.20383996681985 0.5 L 43.20383996681985 -0.5 L 40 -0.5 Z M 43.20383996681985 0.5 L 46.4076799336397 0.5 L 46.4076799336397 3.5 L 53.4076799336397 0 L 46.4076799336397 -3.5 L 46.4076799336397 -0.5 L 43.20383996681985 -0.5 Z"/><text text-anchor="middle" pointer-events="none" font-size="8px" fill="#000000" x="43.20383996681985" y="3" transform="rotate(180 43.20383996681985 0)" font-family="sans-serif"/></g><g class="relationship" transform="translate(654.4633742487624 62.1209946515844) rotate(481.4002595357319)"><path class="outline" fill="#FFE081" stroke="none" d="M 40 0.5 L 40.955029954137466 0.5 L 40.955029954137466 -0.5 L 40 -0.5 Z M 56.517529954137466 0.5 L 57.47255990827493 0.5 L 57.47255990827493 3.5 L 64.47255990827493 0 L 57.47255990827493 -3.5 L 57.47255990827493 -0.5 L 56.517529954137466 -0.5 Z"/><text text-anchor="middle" pointer-events="none" font-size="8px" fill="#000000" x="48.736279954137466" y="3" transform="rotate(180 48.736279954137466 0)" font-family="sans-serif">r…</text></g><g class="relationship" transform="translate(654.4633742487624 62.1209946515844) rotate(208.61243580105145)"><path class="outline" fill="#FFE081" stroke="none" d="M 40 0.5 L 41.40599268654009 0.5 L 41.40599268654009 -0.5 L 40 -0.5 Z M 102.59349268654009 0.5 L 103.99948537308018 0.5 L 103.99948537308018 3.5 L 110.99948537308018 0 L 103.99948537308018 -3.5 L 103.99948537308018 -0.5 L 102.59349268654009 -0.5 Z"/><text text-anchor="middle" pointer-events="none" font-size="8px" fill="#000000" x="71.99974268654009" y="3" transform="rotate(180 71.99974268654009 0)" font-family="sans-serif">re2_RELATION</text></g><g class="relationship" transform="translate(654.4633742487624 62.1209946515844) rotate(244.91694852213317)"><path class="outline" fill="#FFE081" stroke="none" d="M 40 0.5 L 41.3699474760832 0.5 L 41.3699474760832 -0.5 L 40 -0.5 Z M 66.1629162260832 0.5 L 67.5328637021664 0.5 L 67.5328637021664 3.5 L 74.5328637021664 0 L 67.5328637021664 -3.5 L 67.5328637021664 -0.5 L 66.1629162260832 -0.5 Z"/><text text-anchor="middle" pointer-events="none" font-size="8px" fill="#000000" x="53.7664318510832" y="3" transform="rotate(180 53.7664318510832 0)" font-family="sans-serif">re2…</text></g><g class="relationship" transform="translate(405.1041268289083 -308.54742813889044) rotate(434.2816911786081)"><path class="outline" fill="#FFE081" stroke="none" d="M 40 0.5 L 43.33159424595594 0.5 L 43.33159424595594 -0.5 L 40 -0.5 Z M 104.51909424595594 0.5 L 107.85068849191188 0.5 L 107.85068849191188 3.5 L 114.85068849191188 0 L 107.85068849191188 -3.5 L 107.85068849191188 -0.5 L 104.51909424595594 -0.5 Z"/><text text-anchor="middle" pointer-events="none" font-size="8px" fill="#000000" x="73.92534424595594" y="3" font-family="sans-serif">re2_RELATION</text></g><g class="relationship" transform="translate(612.9646183302407 -261.3642393966828) rotate(442.6633299632031)"><path class="outline" fill="#FFE081" stroke="none" d="M 40 0.5 L 42.52351871251227 0.5 L 42.52351871251227 -0.5 L 40 -0.5 Z M 84.62898746251227 0.5 L 87.15250617502454 0.5 L 87.15250617502454 3.5 L 94.15250617502454 0 L 87.15250617502454 -3.5 L 87.15250617502454 -0.5 L 84.62898746251227 -0.5 Z"/><text text-anchor="middle" pointer-events="none" font-size="8px" fill="#000000" x="63.57625308751227" y="3" font-family="sans-serif">re2_REL…</text></g><g class="relationship" transform="translate(612.9646183302407 -261.3642393966828) rotate(497.1051790291168)"><path class="outline" fill="#FFE081" stroke="none" d="M 40 0.5 L 44.840838848588895 0.5 L 44.840838848588895 -0.5 L 40 -0.5 Z M 44.840838848588895 0.5 L 49.68167769717779 0.5 L 49.68167769717779 3.5 L 56.68167769717779 0 L 49.68167769717779 -3.5 L 49.68167769717779 -0.5 L 44.840838848588895 -0.5 Z"/><text text-anchor="middle" pointer-events="none" font-size="8px" fill="#000000" x="44.840838848588895" y="3" transform="rotate(180 44.840838848588895 0)" font-family="sans-serif"/></g><g class="relationship" transform="translate(612.9646183302407 -261.3642393966828) rotate(481.4822429929324)"><path class="outline" fill="#FFE081" stroke="none" d="M 40 0.5 L 60.57002309232955 0.5 L 60.57002309232955 -0.5 L 40 -0.5 Z M 121.75752309232955 0.5 L 142.3275461846591 0.5 L 142.3275461846591 3.5 L 149.3275461846591 0 L 142.3275461846591 -3.5 L 142.3275461846591 -0.5 L 121.75752309232955 -0.5 Z"/><text text-anchor="middle" pointer-events="none" font-size="8px" fill="#000000" x="91.16377309232955" y="3" transform="rotate(180 91.16377309232955 0)" font-family="sans-serif">re2_RELATION</text></g><g class="relationship" transform="translate(790.3937189272457 -84.0486815381887) rotate(183.28452757127786)"><path class="outline" fill="#FFE081" stroke="none" d="M 40 0.5 L 104.28477965245506 0.5 L 104.28477965245506 -0.5 L 40 -0.5 Z M 165.47227965245506 0.5 L 229.75705930491011 0.5 L 229.75705930491011 3.5 L 236.75705930491011 0 L 229.75705930491011 -3.5 L 229.75705930491011 -0.5 L 165.47227965245506 -0.5 Z"/><text text-anchor="middle" pointer-events="none" font-size="8px" fill="#000000" x="134.87852965245506" y="3" transform="rotate(180 134.87852965245506 0)" font-family="sans-serif">re2_RELATION</text></g><g class="relationship" transform="translate(790.3937189272457 -84.0486815381887) rotate(195.43586442058768)"><path class="outline" fill="#FFE081" stroke="none" d="M 40 0.5 L 49.05444176767439 0.5 L 49.05444176767439 -0.5 L 40 -0.5 Z M 110.24194176767439 0.5 L 119.29638353534878 0.5 L 119.29638353534878 3.5 L 126.29638353534878 0 L 119.29638353534878 -3.5 L 119.29638353534878 -0.5 L 110.24194176767439 -0.5 Z"/><text text-anchor="middle" pointer-events="none" font-size="8px" fill="#000000" x="79.64819176767439" y="3" transform="rotate(180 79.64819176767439 0)" font-family="sans-serif">re2_RELATION</text></g><g class="relationship" transform="translate(790.3937189272457 -84.0486815381887) rotate(204.18788669812704)"><path class="outline" fill="#FFE081" stroke="none" d="M 40 0.5 L 101.98204796212437 0.5 L 101.98204796212437 -0.5 L 40 -0.5 Z M 163.16954796212437 0.5 L 225.15159592424874 0.5 L 225.15159592424874 3.5 L 232.15159592424874 0 L 225.15159592424874 -3.5 L 225.15159592424874 -0.5 L 163.16954796212437 -0.5 Z"/><text text-anchor="middle" pointer-events="none" font-size="8px" fill="#000000" x="132.57579796212437" y="3" transform="rotate(180 132.57579796212437 0)" font-family="sans-serif">re2_RELATION</text></g></g><g class="layer nodes"><g class="node" transform="translate(414.6586625865636,-31.227678855823186)"><circle class="outline" cx="0" cy="0" r="40" fill="#DA7194" stroke="#cc3c6c" stroke-width="2px"/><text text-anchor="middle" pointer-events="none" font-family="sans-serif" dy="2.5" font-size="40" fill="#FFFFFF"/><text text-anchor="middle" pointer-events="none" y="5" font-size="10px" fill="#FFFFFF" font-family="sans-serif"> 装备质量管理一…</text></g><g class="node" transform="translate(369.8670420261829,78.63373654756117)"><circle class="outline" cx="0" cy="0" r="40" fill="#4C8EDA" stroke="#2870c2" stroke-width="2px"/><text text-anchor="middle" pointer-events="none" font-family="sans-serif" dy="2.5" font-size="40" fill="#FFFFFF"/><text text-anchor="middle" pointer-events="none" y="5" font-size="10px" fill="#FFFFFF" font-family="sans-serif"> 国家级计划员</text></g><g class="node" transform="translate(217.9979225482395,-252.4518532895538)"><circle class="outline" cx="0" cy="0" r="40" fill="#4C8EDA" stroke="#2870c2" stroke-width="2px"/><text text-anchor="middle" pointer-events="none" font-family="sans-serif" dy="2.5" font-size="40" fill="#FFFFFF"/><text text-anchor="middle" pointer-events="none" y="5" font-size="10px" fill="#FFFFFF" font-family="sans-serif"> 国家级负责人</text></g><g class="node" transform="translate(331.7033949304674,159.78419513565595)"><circle class="outline" cx="0" cy="0" r="40" fill="#4C8EDA" stroke="#2870c2" stroke-width="2px"/><text text-anchor="middle" pointer-events="none" font-family="sans-serif" dy="2.5" font-size="40" fill="#FFFFFF"/><text text-anchor="middle" pointer-events="none" y="5" font-size="10px" fill="#FFFFFF" font-family="sans-serif"> 地市级客服</text></g><g class="node" transform="translate(521.9040884594459,-10.190002672207035)"><circle class="outline" cx="0" cy="0" r="40" fill="#4C8EDA" stroke="#2870c2" stroke-width="2px"/><text text-anchor="middle" pointer-events="none" font-family="sans-serif" dy="2.5" font-size="40" fill="#FFFFFF"/><text text-anchor="middle" pointer-events="none" y="5" font-size="10px" fill="#FFFFFF" font-family="sans-serif"> 基地室</text></g><g class="node" transform="translate(360.88688761862085,-134.74355768101753)"><circle class="outline" cx="0" cy="0" r="40" fill="#4C8EDA" stroke="#2870c2" stroke-width="2px"/><text text-anchor="middle" pointer-events="none" font-family="sans-serif" dy="2.5" font-size="40" fill="#FFFFFF"/><text text-anchor="middle" pointer-events="none" y="5" font-size="10px" fill="#FFFFFF" font-family="sans-serif"> 大气成分室</text></g><g class="node" transform="translate(514.0912815026569,-99.90531889712236)"><circle class="outline" cx="0" cy="0" r="40" fill="#4C8EDA" stroke="#2870c2" stroke-width="2px"/><text text-anchor="middle" pointer-events="none" font-family="sans-serif" dy="2.5" font-size="40" fill="#FFFFFF"/><text text-anchor="middle" pointer-events="none" y="5" font-size="10px" fill="#FFFFFF" font-family="sans-serif"> 客服中心</text></g><g class="node" transform="translate(212.98697489837448,26.9882934973737)"><circle class="outline" cx="0" cy="0" r="40" fill="#4C8EDA" stroke="#2870c2" stroke-width="2px"/><text text-anchor="middle" pointer-events="none" font-family="sans-serif" dy="2.5" font-size="40" fill="#FFFFFF"/><text text-anchor="middle" pointer-events="none" y="5" font-size="10px" fill="#FFFFFF" font-family="sans-serif"> 数据质量室</text></g><g class="node" transform="translate(472.62969992687647,225.72335389145394)"><circle class="outline" cx="0" cy="0" r="40" fill="#4C8EDA" stroke="#2870c2" stroke-width="2px"/><text text-anchor="middle" pointer-events="none" font-family="sans-serif" dy="2.5" font-size="40" fill="#FFFFFF"/><text text-anchor="middle" pointer-events="none" y="5" font-size="10px" fill="#FFFFFF" font-family="sans-serif"> 省级客服</text></g><g class="node" transform="translate(383.1227650409843,233.2667131546514)"><circle class="outline" cx="0" cy="0" r="40" fill="#4C8EDA" stroke="#2870c2" stroke-width="2px"/><text text-anchor="middle" pointer-events="none" font-family="sans-serif" dy="2.5" font-size="40" fill="#FFFFFF"/><text text-anchor="middle" pointer-events="none" y="5" font-size="10px" fill="#FFFFFF" font-family="sans-serif"> 省级计划员</text></g><g class="node" transform="translate(263.95787227035964,100.62744921368436)"><circle class="outline" cx="0" cy="0" r="40" fill="#4C8EDA" stroke="#2870c2" stroke-width="2px"/><text text-anchor="middle" pointer-events="none" font-family="sans-serif" dy="2.5" font-size="40" fill="#FFFFFF"/><text text-anchor="middle" pointer-events="none" y="5" font-size="10px" fill="#FFFFFF" font-family="sans-serif"> 省级负责人</text></g><g class="node" transform="translate(421.1114340028235,152.0765080246278)"><circle class="outline" cx="0" cy="0" r="40" fill="#4C8EDA" stroke="#2870c2" stroke-width="2px"/><text text-anchor="middle" pointer-events="none" font-family="sans-serif" dy="2.5" font-size="40" fill="#FFFFFF"/><text text-anchor="middle" pointer-events="none" y="5" font-size="10px" fill="#FFFFFF" font-family="sans-serif"> 站级负责人</text></g><g class="node" transform="translate(605.9092820888259,-41.61076038198)"><circle class="outline" cx="0" cy="0" r="40" fill="#4C8EDA" stroke="#2870c2" stroke-width="2px"/><text text-anchor="middle" pointer-events="none" font-family="sans-serif" dy="2.5" font-size="40" fill="#FFFFFF"/><text text-anchor="middle" pointer-events="none" y="5" font-size="10px" fill="#FFFFFF" font-family="sans-serif"> 计划员</text></g><g class="node" transform="translate(561.4041231336993,70.1814197327383)"><circle class="outline" cx="0" cy="0" r="40" fill="#4C8EDA" stroke="#2870c2" stroke-width="2px"/><text text-anchor="middle" pointer-events="none" font-family="sans-serif" dy="2.5" font-size="40" fill="#FFFFFF"/><text text-anchor="middle" pointer-events="none" y="5" font-size="10px" fill="#FFFFFF" font-family="sans-serif"> 计财处</text></g><g class="node" transform="translate(510.4991920958285,144.39665228320615)"><circle class="outline" cx="0" cy="0" r="40" fill="#4C8EDA" stroke="#2870c2" stroke-width="2px"/><text text-anchor="middle" pointer-events="none" font-family="sans-serif" dy="2.5" font-size="40" fill="#FFFFFF"/><text text-anchor="middle" pointer-events="none" y="5" font-size="10px" fill="#FFFFFF" font-family="sans-serif"> 负责人</text></g><g class="node" transform="translate(600.0317603440446,151.29338489383275)"><circle class="outline" cx="0" cy="0" r="40" fill="#4C8EDA" stroke="#2870c2" stroke-width="2px"/><text text-anchor="middle" pointer-events="none" font-family="sans-serif" dy="2.5" font-size="40" fill="#FFFFFF"/><text text-anchor="middle" pointer-events="none" y="5" font-size="10px" fill="#FFFFFF" font-family="sans-serif"> 采购供应部门</text></g><g class="node" transform="translate(447.05442636779713,-159.48734597395725)"><circle class="outline" cx="0" cy="0" r="40" fill="#4C8EDA" stroke="#2870c2" stroke-width="2px"/><text text-anchor="middle" pointer-events="none" font-family="sans-serif" dy="2.5" font-size="40" fill="#FFFFFF"/><text text-anchor="middle" pointer-events="none" y="5" font-size="10px" fill="#FFFFFF" font-family="sans-serif"> 综合观察司</text></g><g class="node" transform="translate(630.0958139172288,-128.31005099661644)"><circle class="outline" cx="0" cy="0" r="40" fill="#4C8EDA" stroke="#2870c2" stroke-width="2px"/><text text-anchor="middle" pointer-events="none" font-family="sans-serif" dy="2.5" font-size="40" fill="#FFFFFF"/><text text-anchor="middle" pointer-events="none" y="5" font-size="10px" fill="#FFFFFF" font-family="sans-serif"> 保障室</text></g><g class="node" transform="translate(542.1351932482315,-195.5574058237702)"><circle class="outline" cx="0" cy="0" r="40" fill="#4C8EDA" stroke="#2870c2" stroke-width="2px"/><text text-anchor="middle" pointer-events="none" font-family="sans-serif" dy="2.5" font-size="40" fill="#FFFFFF"/><text text-anchor="middle" pointer-events="none" y="5" font-size="10px" fill="#FFFFFF" font-family="sans-serif"> 专家</text></g><g class="node" transform="translate(302.1621361788964,19.364245487865052)"><circle class="outline" cx="0" cy="0" r="40" fill="#4C8EDA" stroke="#2870c2" stroke-width="2px"/><text text-anchor="middle" pointer-events="none" font-family="sans-serif" dy="2.5" font-size="40" fill="#FFFFFF"/><text text-anchor="middle" pointer-events="none" y="5" font-size="10px" fill="#FFFFFF" font-family="sans-serif"> 业务处</text></g><g class="node" transform="translate(298.5277808261567,-70.42063746235566)"><circle class="outline" cx="0" cy="0" r="40" fill="#4C8EDA" stroke="#2870c2" stroke-width="2px"/><text text-anchor="middle" pointer-events="none" font-family="sans-serif" dy="2.5" font-size="40" fill="#FFFFFF"/><text text-anchor="middle" pointer-events="none" y="5" font-size="10px" fill="#FFFFFF" font-family="sans-serif"> 人事处</text></g><g class="node" transform="translate(469.174862303965,-246.11329001479396)"><circle class="outline" cx="0" cy="0" r="40" fill="#4C8EDA" stroke="#2870c2" stroke-width="2px"/><text text-anchor="middle" pointer-events="none" font-family="sans-serif" dy="2.5" font-size="40" fill="#FFFFFF"/><text text-anchor="middle" pointer-events="none" y="5" font-size="10px" fill="#FFFFFF" font-family="sans-serif"> 仓库管理员</text></g><g class="node" transform="translate(459.6338940371775,70.69314412209818)"><circle class="outline" cx="0" cy="0" r="40" fill="#4C8EDA" stroke="#2870c2" stroke-width="2px"/><text text-anchor="middle" pointer-events="none" font-family="sans-serif" dy="2.5" font-size="40" fill="#FFFFFF"/><text text-anchor="middle" pointer-events="none" y="5" font-size="10px" fill="#FFFFFF" font-family="sans-serif"> 使用人</text></g><g class="node" transform="translate(209.41683552321146,-63.1289989766556)"><circle class="outline" cx="0" cy="0" r="40" fill="#4C8EDA" stroke="#2870c2" stroke-width="2px"/><text text-anchor="middle" pointer-events="none" font-family="sans-serif" dy="2.5" font-size="40" fill="#FFFFFF"/><text text-anchor="middle" pointer-events="none" y="5" font-size="10px" fill="#FFFFFF" font-family="sans-serif"> 台站使用人</text></g><g class="node" transform="translate(382.49893884011425,-221.90467387045473)"><circle class="outline" cx="0" cy="0" r="40" fill="#4C8EDA" stroke="#2870c2" stroke-width="2px"/><text text-anchor="middle" pointer-events="none" font-family="sans-serif" dy="2.5" font-size="40" fill="#FFFFFF"/><text text-anchor="middle" pointer-events="none" y="5" font-size="10px" fill="#FFFFFF" font-family="sans-serif"> 台站级计划员</text></g><g class="node" transform="translate(295.0232435042742,-285.58635744308003)"><circle class="outline" cx="0" cy="0" r="40" fill="#4C8EDA" stroke="#2870c2" stroke-width="2px"/><text text-anchor="middle" pointer-events="none" font-family="sans-serif" dy="2.5" font-size="40" fill="#FFFFFF"/><text text-anchor="middle" pointer-events="none" y="5" font-size="10px" fill="#FFFFFF" font-family="sans-serif"> 国家气象计量站</text></g><g class="node" transform="translate(218.36592489655402,-152.17962750855935)"><circle class="outline" cx="0" cy="0" r="40" fill="#4C8EDA" stroke="#2870c2" stroke-width="2px"/><text text-anchor="middle" pointer-events="none" font-family="sans-serif" dy="2.5" font-size="40" fill="#FFFFFF"/><text text-anchor="middle" pointer-events="none" y="5" font-size="10px" fill="#FFFFFF" font-family="sans-serif"> 国家级业务处</text></g><g class="node" transform="translate(296.1192845974811,-196.84212343752418)"><circle class="outline" cx="0" cy="0" r="40" fill="#4C8EDA" stroke="#2870c2" stroke-width="2px"/><text text-anchor="middle" pointer-events="none" font-family="sans-serif" dy="2.5" font-size="40" fill="#FFFFFF"/><text text-anchor="middle" pointer-events="none" y="5" font-size="10px" fill="#FFFFFF" font-family="sans-serif"> 国家级客服</text></g><g class="node" transform="translate(129.17374057370807,-185.7578599943648)"><circle class="outline" cx="0" cy="0" r="40" fill="#F16667" stroke="#eb2728" stroke-width="2px"/><text text-anchor="middle" pointer-events="none" font-family="sans-serif" dy="2.5" font-size="40" fill="#FFFFFF"/><text text-anchor="middle" pointer-events="none" y="5" font-size="10px" fill="#FFFFFF" font-family="sans-serif"> 业务目标1</text></g><g class="node" transform="translate(654.4633742487624,62.1209946515844)"><circle class="outline" cx="0" cy="0" r="40" fill="#FFC454" stroke="#d7a013" stroke-width="2px"/><text text-anchor="middle" pointer-events="none" font-family="sans-serif" dy="2.5" font-size="40" fill="#604A0E"/><text text-anchor="middle" pointer-events="none" y="5" font-size="10px" fill="#604A0E" font-family="sans-serif"> 仓储供应管理…</text></g><g class="node" transform="translate(405.1041268289083,-308.54742813889044)"><circle class="outline" cx="0" cy="0" r="40" fill="#FFC454" stroke="#d7a013" stroke-width="2px"/><text text-anchor="middle" pointer-events="none" font-family="sans-serif" dy="2.5" font-size="40" fill="#604A0E"/><text text-anchor="middle" pointer-events="none" y="5" font-size="10px" fill="#604A0E" font-family="sans-serif"> 元数据管理边界</text></g><g class="node" transform="translate(612.9646183302407,-261.3642393966828)"><circle class="outline" cx="0" cy="0" r="40" fill="#FFC454" stroke="#d7a013" stroke-width="2px"/><text text-anchor="middle" pointer-events="none" font-family="sans-serif" dy="2.5" font-size="40" fill="#604A0E"/><text text-anchor="middle" pointer-events="none" y="5" font-size="10px" fill="#604A0E" font-family="sans-serif"> 装备维修管理…</text></g><g class="node" transform="translate(95.63913157184135,-94.61681489345752)"><circle class="outline" cx="0" cy="0" r="40" fill="#F16667" stroke="#eb2728" stroke-width="2px"/><text text-anchor="middle" pointer-events="none" font-family="sans-serif" dy="2.5" font-size="40" fill="#FFFFFF"/><text text-anchor="middle" pointer-events="none" y="5" font-size="10px" fill="#FFFFFF" font-family="sans-serif"> 业务目标2</text></g><g class="node" transform="translate(136.07675187964037,73.93815954922654)"><circle class="outline" cx="0" cy="0" r="40" fill="#F16667" stroke="#eb2728" stroke-width="2px"/><text text-anchor="middle" pointer-events="none" font-family="sans-serif" dy="2.5" font-size="40" fill="#FFFFFF"/><text text-anchor="middle" pointer-events="none" y="5" font-size="10px" fill="#FFFFFF" font-family="sans-serif"> 业务目标3</text></g><g class="node" transform="translate(190.20084387789103,163.78846425269433)"><circle class="outline" cx="0" cy="0" r="40" fill="#F16667" stroke="#eb2728" stroke-width="2px"/><text text-anchor="middle" pointer-events="none" font-family="sans-serif" dy="2.5" font-size="40" fill="#FFFFFF"/><text text-anchor="middle" pointer-events="none" y="5" font-size="10px" fill="#FFFFFF" font-family="sans-serif"> 业务目标4</text></g><g class="node" transform="translate(133.20832574341716,-14.929601298647903)"><circle class="outline" cx="0" cy="0" r="40" fill="#F16667" stroke="#eb2728" stroke-width="2px"/><text text-anchor="middle" pointer-events="none" font-family="sans-serif" dy="2.5" font-size="40" fill="#FFFFFF"/><text text-anchor="middle" pointer-events="none" y="5" font-size="10px" fill="#FFFFFF" font-family="sans-serif"> 业务目标5</text></g><g class="node" transform="translate(-84.54335732378533,106.30537284937729)"><circle class="outline" cx="0" cy="0" r="40" fill="#F16667" stroke="#eb2728" stroke-width="2px"/><text text-anchor="middle" pointer-events="none" font-family="sans-serif" dy="2.5" font-size="40" fill="#FFFFFF"/><text text-anchor="middle" pointer-events="none" y="5" font-size="10px" fill="#FFFFFF" font-family="sans-serif"> 业务目标5.1</text></g><g class="node" transform="translate(-12.498350477418072,52.71810583583826)"><circle class="outline" cx="0" cy="0" r="40" fill="#F16667" stroke="#eb2728" stroke-width="2px"/><text text-anchor="middle" pointer-events="none" font-family="sans-serif" dy="2.5" font-size="40" fill="#FFFFFF"/><text text-anchor="middle" pointer-events="none" y="5" font-size="10px" fill="#FFFFFF" font-family="sans-serif"> 业务目标5.2</text></g><g class="node" transform="translate(-22.928660110871185,-36.68478497983135)"><circle class="outline" cx="0" cy="0" r="40" fill="#F16667" stroke="#eb2728" stroke-width="2px"/><text text-anchor="middle" pointer-events="none" font-family="sans-serif" dy="2.5" font-size="40" fill="#FFFFFF"/><text text-anchor="middle" pointer-events="none" y="5" font-size="10px" fill="#FFFFFF" font-family="sans-serif"> 业务目标5.3</text></g><g class="node" transform="translate(-94.95541166762351,16.99989885611459)"><circle class="outline" cx="0" cy="0" r="40" fill="#F16667" stroke="#eb2728" stroke-width="2px"/><text text-anchor="middle" pointer-events="none" font-family="sans-serif" dy="2.5" font-size="40" fill="#FFFFFF"/><text text-anchor="middle" pointer-events="none" y="5" font-size="10px" fill="#FFFFFF" font-family="sans-serif"> 业务目标5.4</text></g><g class="node" transform="translate(-33.28935678445303,-126.10854084280261)"><circle class="outline" cx="0" cy="0" r="40" fill="#F16667" stroke="#eb2728" stroke-width="2px"/><text text-anchor="middle" pointer-events="none" font-family="sans-serif" dy="2.5" font-size="40" fill="#FFFFFF"/><text text-anchor="middle" pointer-events="none" y="5" font-size="10px" fill="#FFFFFF" font-family="sans-serif"> 业务目标5.5</text></g><g class="node" transform="translate(-2.0673374145074668,142.04380491848548)"><circle class="outline" cx="0" cy="0" r="40" fill="#F16667" stroke="#eb2728" stroke-width="2px"/><text text-anchor="middle" pointer-events="none" font-family="sans-serif" dy="2.5" font-size="40" fill="#FFFFFF"/><text text-anchor="middle" pointer-events="none" y="5" font-size="10px" fill="#FFFFFF" font-family="sans-serif"> 业务目标5.6</text></g><g class="node" transform="translate(-105.32051811589577,-72.34246255668434)"><circle class="outline" cx="0" cy="0" r="40" fill="#F16667" stroke="#eb2728" stroke-width="2px"/><text text-anchor="middle" pointer-events="none" font-family="sans-serif" dy="2.5" font-size="40" fill="#FFFFFF"/><text text-anchor="middle" pointer-events="none" y="5" font-size="10px" fill="#FFFFFF" font-family="sans-serif"> 业务目标5.7</text></g><g class="node" transform="translate(251.82401968520452,207.02006676958018)"><circle class="outline" cx="0" cy="0" r="40" fill="#F16667" stroke="#eb2728" stroke-width="2px"/><text text-anchor="middle" pointer-events="none" font-family="sans-serif" dy="2.5" font-size="40" fill="#FFFFFF"/><text text-anchor="middle" pointer-events="none" y="5" font-size="10px" fill="#FFFFFF" font-family="sans-serif"> 业务目标6</text></g><g class="node" transform="translate(72.6641120819491,289.78125198849364)"><circle class="outline" cx="0" cy="0" r="40" fill="#F16667" stroke="#eb2728" stroke-width="2px"/><text text-anchor="middle" pointer-events="none" font-family="sans-serif" dy="2.5" font-size="40" fill="#FFFFFF"/><text text-anchor="middle" pointer-events="none" y="5" font-size="10px" fill="#FFFFFF" font-family="sans-serif"> 业务目标6.1</text></g><g class="node" transform="translate(106.23640308739132,373.09224127715186)"><circle class="outline" cx="0" cy="0" r="40" fill="#F16667" stroke="#eb2728" stroke-width="2px"/><text text-anchor="middle" pointer-events="none" font-family="sans-serif" dy="2.5" font-size="40" fill="#FFFFFF"/><text text-anchor="middle" pointer-events="none" y="5" font-size="10px" fill="#FFFFFF" font-family="sans-serif"> 业务目标6.2</text></g><g class="node" transform="translate(190.0077251633405,405.5877421205455)"><circle class="outline" cx="0" cy="0" r="40" fill="#F16667" stroke="#eb2728" stroke-width="2px"/><text text-anchor="middle" pointer-events="none" font-family="sans-serif" dy="2.5" font-size="40" fill="#FFFFFF"/><text text-anchor="middle" pointer-events="none" y="5" font-size="10px" fill="#FFFFFF" font-family="sans-serif"> 业务目标6.3</text></g><g class="node" transform="translate(279.8023359985091,400.4600250972787)"><circle class="outline" cx="0" cy="0" r="40" fill="#F16667" stroke="#eb2728" stroke-width="2px"/><text text-anchor="middle" pointer-events="none" font-family="sans-serif" dy="2.5" font-size="40" fill="#FFFFFF"/><text text-anchor="middle" pointer-events="none" y="5" font-size="10px" fill="#FFFFFF" font-family="sans-serif"> 业务目标6.4</text></g><g class="node" transform="translate(790.3937189272457,-84.0486815381887)"><circle class="outline" cx="0" cy="0" r="40" fill="#FFC454" stroke="#d7a013" stroke-width="2px"/><text text-anchor="middle" pointer-events="none" font-family="sans-serif" dy="2.5" font-size="40" fill="#604A0E"/><text text-anchor="middle" pointer-events="none" y="5" font-size="10px" fill="#604A0E" font-family="sans-serif"> 装备维护管理…</text></g></g></svg>